<svg xmlns="http://www.w3.org/2000/svg" viewBox="0 0 337.02 64.25"><defs><style>.cls-1{fill:#f8c35c;}.cls-2,.cls-3{fill:#f8961d;}.cls-3{stroke:#f8961d;stroke-miterlimit:10;stroke-width:0.64px;}</style></defs><g id="Layer_2" data-name="Layer 2"><g id="Layer_1-2" data-name="Layer 1"><path class="cls-1" d="M.2,33.82A.54.54,0,0,1,.2,33L16.13,17.05a.54.54,0,0,1,.83,0l4.43,4.43a.54.54,0,0,1,0,.84l-11.1,11.1,11.1,11.06a.53.53,0,0,1,0,.83L17,49.75a.54.54,0,0,1-.83,0Z"/><path class="cls-1" d="M35.88,49.75a.55.55,0,0,1-.84,0l-4.43-4.44a.54.54,0,0,1,0-.83l11.1-11.06-11.1-11.1a.55.55,0,0,1,0-.84L35,17.05a.55.55,0,0,1,.84,0L51.81,33a.55.55,0,0,1,0,.84Z"/><path class="cls-2" d="M18.92,33.82a.55.55,0,0,1,0-.84L34.85,17.05a.54.54,0,0,1,.83,0l4.44,4.43a.55.55,0,0,1,0,.84L29,33.42,40.12,44.48a.54.54,0,0,1,0,.83l-4.44,4.44a.54.54,0,0,1-.83,0Z"/><path class="cls-2" d="M54.6,49.75a.55.55,0,0,1-.84,0l-4.43-4.44a.54.54,0,0,1,0-.83L60.44,33.42,49.33,22.32a.55.55,0,0,1,0-.84l4.43-4.43a.55.55,0,0,1,.84,0L70.53,33a.55.55,0,0,1,0,.84Z"/><circle class="cls-1" cx="26" cy="7.15" r="7.15"/><circle class="cls-2" cx="44.72" cy="57.09" r="7.15"/><path class="cls-3" d="M97.4,42.84a8,8,0,0,0,4.31-1.23.35.35,0,0,1,.52.12l2.34,3.45a.32.32,0,0,1-.11.53,13,13,0,0,1-7.06,2A13.1,13.1,0,0,1,84.3,34a13.18,13.18,0,0,1,12-12.49,12.82,12.82,0,0,1,8.08,2,.35.35,0,0,1,.11.56l-2.34,3.45a.32.32,0,0,1-.49.09,8.14,8.14,0,0,0-5.42-1.11,7.8,7.8,0,0,0-4.77,2.42,8.2,8.2,0,0,0-2.28,4.89,8.24,8.24,0,0,0,8.16,9Z"/><path class="cls-3" d="M121.63,21.37A13.14,13.14,0,0,1,134.8,34.5a13.17,13.17,0,1,1-26.34,0,13.14,13.14,0,0,1,13.17-13.13Zm0,21.38a8.3,8.3,0,0,0,8.25-8.25,8.24,8.24,0,1,0-14,5.82A7.84,7.84,0,0,0,121.63,42.75Z"/><path class="cls-3" d="M160.86,6.21a.34.34,0,0,1,.38-.38h4.25a.34.34,0,0,1,.38.38V47.32a.34.34,0,0,1-.38.38h-4.25a.34.34,0,0,1-.38-.38V44.89a13.1,13.1,0,0,1-13.48,1.75,13,13,0,0,1-4.25-3,13,13,0,0,1,.38-18.37,13.06,13.06,0,0,1,17.35-.88Zm0,28.23a8.19,8.19,0,1,0-14,6,8.19,8.19,0,0,0,14-5.62Z"/><path class="cls-3" d="M183.86,21.48a12,12,0,0,1,8.92,3.86,12.58,12.58,0,0,1,3.69,9.07v1.67a.34.34,0,0,1-.35.38l-19.31,1.67a8.17,8.17,0,0,0,7.4,4.68A8.19,8.19,0,0,0,191.15,39a.35.35,0,0,1,.52-.15l3.6,2.11a.32.32,0,0,1,.15.52,12.77,12.77,0,0,1-4.8,4.57,13,13,0,0,1-6.41,1.67,13.2,13.2,0,0,1-13.13-13.14,12.84,12.84,0,0,1,3.71-9.36A12.09,12.09,0,0,1,183.86,21.48Zm7.4,10.45a6.94,6.94,0,0,0-2.66-4,7.82,7.82,0,0,0-4.83-1.52,7.33,7.33,0,0,0-5.09,1.93,7.89,7.89,0,0,0-2.57,4.91Z"/><path class="cls-3" d="M208.64,23.21a10.44,10.44,0,0,1,5.65-1.64,10,10,0,0,1,1.75.15.35.35,0,0,1,.33.44l-.85,4.09a.34.34,0,0,1-.44.29,6.84,6.84,0,0,0-.79-.05A5.42,5.42,0,0,0,210.51,28a5.54,5.54,0,0,0-1.87,3.57V47.38a.34.34,0,0,1-.38.38H204a.33.33,0,0,1-.38-.38V21.75a.33.33,0,0,1,.38-.38h4.24a.33.33,0,0,1,.38.38Z"/><path class="cls-3" d="M244.1,39.13q0,3.67,0,6.17v2.08a.34.34,0,0,1-.38.38h-4.18a.33.33,0,0,1-.38-.38V45.3q0-2.49.05-6.17V35.35l0-.85V32.07c0-.23,0-.44-.05-.64a9,9,0,0,0-.33-1.26A6.15,6.15,0,0,0,237.43,28a5.8,5.8,0,0,0-2.22-1.41,8.54,8.54,0,0,0-1.29-.29h-.15l-.11,0h-1a5.66,5.66,0,0,0-2.31.67,7,7,0,0,0-1.75,1.32,6.36,6.36,0,0,0-1,1.52,6.43,6.43,0,0,0-.47,1.38,4.11,4.11,0,0,0-.11.52v.18l0,.15a2.44,2.44,0,0,1,0,.44l-.06,1.49V47.29c0,.27-.13.41-.38.41h-4.24c-.26,0-.38-.14-.38-.41V6.15a.33.33,0,0,1,.38-.38h4.24a.34.34,0,0,1,.38.38V23.82a10.3,10.3,0,0,1,1.37-.87,10.51,10.51,0,0,1,4-1.26l.27,0H233l.15,0h.17l.21,0h.26l.32,0a1.26,1.26,0,0,1,.3,0,11,11,0,0,1,2.25.46,10.76,10.76,0,0,1,4,2.4,10.57,10.57,0,0,1,2.6,3.9,9.59,9.59,0,0,1,.62,2.22c.06.35.1.72.14,1.11v1c0,.48,0,1,0,1.69v1.64C244.07,37.41,244.08,38.4,244.1,39.13Z"/><path class="cls-3" d="M261.71,21.37A13.13,13.13,0,0,1,274.88,34.5a13.17,13.17,0,1,1-26.33,0,13.13,13.13,0,0,1,13.16-13.13Zm0,21.38A8.3,8.3,0,0,0,270,34.5a8.24,8.24,0,1,0-14.05,5.82A7.84,7.84,0,0,0,261.71,42.75Z"/><path class="cls-3" d="M292.46,21.37A13.13,13.13,0,0,1,305.63,34.5a13.17,13.17,0,1,1-26.33,0,13.13,13.13,0,0,1,13.16-13.13Zm0,21.38a8.28,8.28,0,0,0,8.25-8.25,8.24,8.24,0,1,0-14,5.82A7.84,7.84,0,0,0,292.46,42.75Z"/><path class="cls-3" d="M331.7,6.21a.34.34,0,0,1,.38-.38h4.24a.34.34,0,0,1,.38.38V47.32a.34.34,0,0,1-.38.38h-4.24a.34.34,0,0,1-.38-.38V44.89a13.11,13.11,0,0,1-13.49,1.75,13,13,0,0,1-4.24-3,13,13,0,0,1,.38-18.37,13.06,13.06,0,0,1,17.35-.88Zm0,28.23a8.2,8.2,0,0,0-8.19-8,8.19,8.19,0,0,0-8.2,8.19,8,8,0,0,0,2.4,5.82,8.2,8.2,0,0,0,11.53.06,8,8,0,0,0,2.46-5.68Z"/></g></g></svg>