<svg xmlns="http://www.w3.org/2000/svg" viewBox="0 0 461.03 418.79"><defs><style>.cls-1{fill:#f8c35c;}.cls-2{fill:#f8961d;}</style></defs><g id="Layer_2" data-name="Layer 2"><g id="Layer_1-2" data-name="Layer 1"><path class="cls-1" d="M1.29,220.43q-2.58-2.58,0-5.44L105.13,111.15q2.58-2.58,5.44,0L139.46,140q2.58,2.86,0,5.44L67.08,217.85l72.38,72.09q2.58,2.87,0,5.44l-28.89,28.89q-2.86,2.58-5.44,0Z"/><path class="cls-1" d="M233.86,324.27q-2.87,2.58-5.43,0l-28.9-28.89q-2.57-2.58,0-5.44l72.38-72.09-72.38-72.37q-2.57-2.58,0-5.44l28.9-28.89q2.56-2.58,5.43,0L337.71,215q2.57,2.87,0,5.44Z"/><path class="cls-2" d="M123.32,220.43q-2.56-2.58,0-5.44L227.17,111.15q2.57-2.58,5.43,0L261.49,140q2.58,2.86,0,5.44l-72.37,72.37,72.37,72.09q2.58,2.87,0,5.44L232.6,324.27q-2.86,2.58-5.43,0Z"/><path class="cls-2" d="M355.9,324.27q-2.86,2.58-5.44,0l-28.89-28.89q-2.58-2.58,0-5.44l72.37-72.09-72.37-72.37q-2.58-2.58,0-5.44l28.89-28.89q2.58-2.58,5.44,0L459.74,215q2.58,2.87,0,5.44Z"/><circle class="cls-1" cx="169.5" cy="46.61" r="46.61"/><circle class="cls-2" cx="291.53" cy="372.17" r="46.61"/></g></g></svg>