<?xml version="1.0"?>
<svg xmlns="http://www.w3.org/2000/svg" xmlns:xlink="http://www.w3.org/1999/xlink" xmlns:svgjs="http://svgjs.com/svgjs" version="1.1" width="512" height="512" x="0" y="0" viewBox="0 0 512.007 512.007" style="enable-background:new 0 0 512 512" xml:space="preserve" class=""><g transform="matrix(2.678033494476762,0,0,2.678033494476762,-429.57657458605104,-394.57657458605104)">
<circle xmlns="http://www.w3.org/2000/svg" style="" cx="256.003" cy="256.003" r="256.003" fill="#000000" data-original="#827ddc" class=""/>
<path xmlns="http://www.w3.org/2000/svg" style="" d="M380.117,113.567c-5.628-5.629-13.404-9.112-21.994-9.112H153.877c-17.176,0-31.1,13.924-31.1,31.1  V339.8c0,8.586,3.479,16.36,9.106,21.987l0,0l149.006,149.006C410.592,498.278,512,388.987,512,256.001  c0-3.616-0.094-7.211-0.242-10.791L380.117,113.567z" fill="#000000" data-original="#6e64c3" class=""/>
<path xmlns="http://www.w3.org/2000/svg" style="" d="M358.123,104.456H153.877c-17.176,0-31.1,13.924-31.1,31.1v204.246c0,17.176,13.924,31.1,31.1,31.1  h172.607l-7.006-28.023l69.743,64.669c0-7.558,0-264.62,0-271.99C389.222,118.38,375.298,104.456,358.123,104.456z" fill="#000000" data-original="#5046af" class=""/>
<path xmlns="http://www.w3.org/2000/svg" style="" d="M323.46,190.367c0,0-12.896-13.653-42.177-15.629v4.311c0,0,16.06-0.933,35.94,18.636  c-15.006-10.796-36.413-17.559-60.191-17.559s-45.185,6.762-60.191,17.559c19.88-19.569,35.94-18.636,35.94-18.636v-4.311  c-29.281,1.976-42.177,15.629-42.177,15.629c-22.312,28.74-23.569,91.613-23.569,91.613c21.017,25.328,47.424,22.096,47.424,22.096  l9.7-14.011c-12.509-3.384-21.442-11.153-26.811-17.203c14.979,10.587,36.171,17.203,59.684,17.203s44.705-6.615,59.684-17.203  c-5.369,6.049-14.302,13.819-26.811,17.203l9.7,14.011c0,0,26.407,3.234,47.424-22.096  C347.031,281.979,345.773,219.107,323.46,190.367z M229.01,264.196c-8.433,0-15.269-7.263-15.269-16.224  c0-8.96,6.836-16.224,15.269-16.224c8.433,0,15.269,7.264,15.269,16.224S237.443,264.196,229.01,264.196z M285.056,264.196  c-8.433,0-15.269-7.263-15.269-16.224c0-8.96,6.836-16.224,15.269-16.224c8.433,0,15.269,7.264,15.269,16.224  S293.49,264.196,285.056,264.196z" fill="#ffffff" data-original="#ffffff" class=""/>
<g xmlns="http://www.w3.org/2000/svg">
</g>
<g xmlns="http://www.w3.org/2000/svg">
</g>
<g xmlns="http://www.w3.org/2000/svg">
</g>
<g xmlns="http://www.w3.org/2000/svg">
</g>
<g xmlns="http://www.w3.org/2000/svg">
</g>
<g xmlns="http://www.w3.org/2000/svg">
</g>
<g xmlns="http://www.w3.org/2000/svg">
</g>
<g xmlns="http://www.w3.org/2000/svg">
</g>
<g xmlns="http://www.w3.org/2000/svg">
</g>
<g xmlns="http://www.w3.org/2000/svg">
</g>
<g xmlns="http://www.w3.org/2000/svg">
</g>
<g xmlns="http://www.w3.org/2000/svg">
</g>
<g xmlns="http://www.w3.org/2000/svg">
</g>
<g xmlns="http://www.w3.org/2000/svg">
</g>
<g xmlns="http://www.w3.org/2000/svg">
</g>
</g></svg>
