<svg xmlns="http://www.w3.org/2000/svg" viewBox="0 0 500 500"><g id="freepik--background-complete--inject-2"><rect x="47.6" y="43.59" width="162.27" height="215.04" transform="translate(1.83 -1.54) rotate(0.69)" style="fill:#fafafa"></rect><path d="M209.13,260.18h-.56l-162.83-2v-.57L48.34,42.05h.57L211.73,44v.57ZM46.89,257.09,208,259l2.58-213.9L49.46,43.2Z" style="fill:#e0e0e0"></path><path d="M147.84,126.43a4.46,4.46,0,0,1,2.43-3.67,12.35,12.35,0,0,1,4.41-1.24,39,39,0,0,1,7.15-.47,7.43,7.43,0,0,1,3.42.81c2.24,1.3,2.89,4.29,2.54,6.84a4.21,4.21,0,0,1-1.2,2.73,4.62,4.62,0,0,1-1.46.76,30.56,30.56,0,0,1-14,1.69c-1.42-.16-3.06-.6-3.56-1.93" style="fill:#e0e0e0"></path><path d="M104.55,126.73a4.48,4.48,0,0,0-2.7-3.47,12.22,12.22,0,0,0-4.5-.88,38,38,0,0,0-7.16.08,7.57,7.57,0,0,0-3.36,1.08c-2.12,1.47-2.54,4.5-2,7a4.22,4.22,0,0,0,1.41,2.62,4.86,4.86,0,0,0,1.52.64,30.61,30.61,0,0,0,14.08.59c1.4-.27,3-.84,3.4-2.21" style="fill:#e0e0e0"></path><path d="M126.41,128c-8.68.57-19.67-.2-22.65-.93s-15.89-4-21.82,2.26-10.53,46.49-9.79,54.75,11.49,13.59,17.66,9.7,14.19-21.35,16.28-21.71,8.24,2.2,12-.76a36.85,36.85,0,0,0,5.69-5.28s7.85-.59,8.55-.62,3.57,5.2,7.4,6.17,10.62-1.4,11.59-1.86,8.06,12.19,15,18.37,19.31,1.77,19.61-8.5-13.09-47-17.36-52.12-18.8-3.06-24.9-1S131.87,127.64,126.41,128Z" style="fill:#ebebeb"></path><path d="M166.16,181.49c-7-6.19-14.09-18.83-15-18.37S143.36,166,139.52,165s-6.7-6.2-7.4-6.17-8.55.62-8.55.62a36.85,36.85,0,0,1-5.69,5.28c-3.81,3-9.95.39-12,.75s-10.11,17.82-16.28,21.71c-5.79,3.66-15.6-.82-17.41-8.21a44.31,44.31,0,0,0,0,5.11c.75,8.25,11.49,13.59,17.66,9.7s14.19-21.35,16.28-21.71,8.24,2.2,12-.76a36.85,36.85,0,0,0,5.69-5.28s7.85-.59,8.55-.62,3.57,5.2,7.4,6.17,10.62-1.4,11.59-1.86,8.06,12.19,15,18.37,19.31,1.77,19.61-8.5a25.45,25.45,0,0,0-.45-4.75C184,183.76,172.71,187.29,166.16,181.49Z" style="fill:#e0e0e0"></path><path d="M110.44,143.91A12.45,12.45,0,1,1,97.51,132,12.45,12.45,0,0,1,110.44,143.91Z" style="fill:#e0e0e0"></path><path d="M109.18,142.84a12.45,12.45,0,1,1-12.93-12A12.45,12.45,0,0,1,109.18,142.84Z" style="fill:#f5f5f5"></path><path d="M170.54,142.2a12.45,12.45,0,1,1-12.93-11.95A12.45,12.45,0,0,1,170.54,142.2Z" style="fill:#e0e0e0"></path><path d="M171.78,140.38a12.45,12.45,0,1,1-12.93-11.95A12.44,12.44,0,0,1,171.78,140.38Z" style="fill:#f5f5f5"></path><path d="M150.9,160a8.38,8.38,0,1,1-8.7-8A8.36,8.36,0,0,1,150.9,160Z" style="fill:#f5f5f5"></path><path d="M120.43,161.18a8.38,8.38,0,1,1-8.71-8A8.38,8.38,0,0,1,120.43,161.18Z" style="fill:#f5f5f5"></path><path d="M103.1,139.62l-3,.12-.12-3.05a2.55,2.55,0,0,0-2.63-2.43l-1.84.08A2.52,2.52,0,0,0,93,137l.11,3-3,.12a2.54,2.54,0,0,0-2.43,2.63l.07,1.84A2.54,2.54,0,0,0,90.38,147l3.05-.12.12,3a2.53,2.53,0,0,0,2.63,2.43l1.84-.07a2.54,2.54,0,0,0,2.43-2.63l-.12-3.05,3-.12a2.54,2.54,0,0,0,2.43-2.63l-.07-1.84A2.55,2.55,0,0,0,103.1,139.62Z" style="fill:#e0e0e0"></path><path d="M162.87,134.47a3.67,3.67,0,1,1-3.81-3.52A3.66,3.66,0,0,1,162.87,134.47Z" style="fill:#e0e0e0"></path><path d="M170.53,140.64a3.67,3.67,0,1,1-3.81-3.52A3.67,3.67,0,0,1,170.53,140.64Z" style="fill:#e0e0e0"></path><path d="M163.36,146.88a3.67,3.67,0,1,1-3.81-3.52A3.66,3.66,0,0,1,163.36,146.88Z" style="fill:#e0e0e0"></path><path d="M155.42,141.34a3.67,3.67,0,1,1-3.81-3.52A3.66,3.66,0,0,1,155.42,141.34Z" style="fill:#e0e0e0"></path><path d="M143.77,126.47c-6.1,2.06-11.9,1.17-17.36,1.52a124.61,124.61,0,0,1-15.12-.07,11.89,11.89,0,0,0,.2,1.56l2.07,11.18a3.41,3.41,0,0,0,3.93,3.43,125,125,0,0,0,13.41.36,29.58,29.58,0,0,0,9.27-1.37,2.19,2.19,0,0,0,1.68-1.75,52.12,52.12,0,0,0,2.45-15Z" style="fill:#e0e0e0"></path><path d="M61.47,52.64A3.35,3.35,0,1,1,58,49.43,3.35,3.35,0,0,1,61.47,52.64Z" style="fill:#e0e0e0"></path><path d="M102.7,107.72l4.6-.19a1.1,1.1,0,0,1,.5.11,1,1,0,0,1,.53.85.86.86,0,0,1,0,.29c-.07.39-.16.79-.26,1.19a13,13,0,0,1-2.68,5.32,5.42,5.42,0,0,1-3.84,2.18,3.53,3.53,0,0,1-.56,0,4.45,4.45,0,0,1-3.21-2.14,10.32,10.32,0,0,1-1.6-5.49,15.07,15.07,0,0,1,.39-4,13.2,13.2,0,0,1,2.53-5.43,5.56,5.56,0,0,1,4.05-2.37,3.89,3.89,0,0,1,1.76.33,5.64,5.64,0,0,1,2.82,3.25,1.1,1.1,0,0,1,.13.45.88.88,0,0,1-.12.5.92.92,0,0,1-.83.53,1.15,1.15,0,0,1-.31,0,.92.92,0,0,1-.66-.59l0-.09a4.55,4.55,0,0,0-.6-1.06,2.61,2.61,0,0,0-2.25-1.23,2.55,2.55,0,0,0-1.5.61,8.21,8.21,0,0,0-2.37,3.71,13.67,13.67,0,0,0-.89,5.24,9.36,9.36,0,0,0,1,4,2.67,2.67,0,0,0,2.47,1.71,3.27,3.27,0,0,0,2.17-1.43,12.23,12.23,0,0,0,2.2-4.36c-2.12.08-3.23.11-3.31.09-.72-.09-1.1-.44-1.14-1.07a1.21,1.21,0,0,1,.08-.34A1,1,0,0,1,102.7,107.72Z" style="fill:#e0e0e0"></path><path d="M118,98.12a2.73,2.73,0,0,1,.14.33q.33,1,3.92,17a.69.69,0,0,1,0,.24,1,1,0,0,1-.11.51.89.89,0,0,1-.8.54H121a.89.89,0,0,1-.79-.65l-1.32-5.63-5.67.22-2.5,5.81a.77.77,0,0,1-.08.19,1.12,1.12,0,0,1-.83.52,1.07,1.07,0,0,1-.55-.14,1,1,0,0,1-.48-.81.79.79,0,0,1,.05-.3c.15-.41.41-1,.77-1.91q5.43-13.21,6.51-15.6a1.05,1.05,0,0,1,.93-.73A1,1,0,0,1,118,98.12ZM116.92,102l-2.81,6.56,4.32-.17Z" style="fill:#e0e0e0"></path><path d="M138.42,115a.13.13,0,0,1,0,0c-.07.64-.38,1-.95,1a.84.84,0,0,1-.52-.13,1.15,1.15,0,0,1-.53-1q0-.21.78-10.19-2.72,6.3-4.25,10c-.22.52-.34.81-.37.87a1.13,1.13,0,0,1-.95.75,1,1,0,0,1-.24,0c-.34,0-.62-.32-.82-.82L128,105c-.34,3.8-.7,7.27-1.08,10.43,0,0,0,0,0,.05-.06.65-.38,1-.94,1a.83.83,0,0,1-.52-.13,1.15,1.15,0,0,1-.54-1q0-.12,1.24-13.41c.21-2.29.33-3.53.34-3.71a1.11,1.11,0,0,1,.14-.41,1.1,1.1,0,0,1,1.16-.51.75.75,0,0,1,.62.54q.3,1.37,1.92,8c.78,3.2,1.27,5.26,1.49,6.2l6.13-14.46a2.1,2.1,0,0,1,.13-.26,1.07,1.07,0,0,1,.87-.49.87.87,0,0,1,.45.1,1,1,0,0,1,.58.82c0,.24,0,.52-.07.83Q138.65,113.18,138.42,115Z" style="fill:#e0e0e0"></path><path d="M145.62,96.54l7.94-.32a1.66,1.66,0,0,1,.46,0,.91.91,0,0,1,.72.92.81.81,0,0,1-.07.38,1.17,1.17,0,0,1-1,.69l-7.12.28-.63,6.78,5.13-.2a1.32,1.32,0,0,1,.56.09.92.92,0,0,1,.64.9.78.78,0,0,1-.05.34,1.18,1.18,0,0,1-1,.71l-5.46.21-.57,6.34,7-.28a1.79,1.79,0,0,1,.53.07.93.93,0,0,1,.68.91,1.19,1.19,0,0,1,0,.32,1.13,1.13,0,0,1-1,.74l-8.23.32a1,1,0,0,1-.57-.13,1.19,1.19,0,0,1-.53-1q0-.17,1.54-17.12a1.2,1.2,0,0,1,.08-.35A.91.91,0,0,1,145.62,96.54Z" style="fill:#e0e0e0"></path><path d="M102.22,202.11c-.09.68-.41,1-1,1.06a.85.85,0,0,1-.52-.14,1.15,1.15,0,0,1-.52-1l1.62-17.12a2.71,2.71,0,0,1,0-.4.9.9,0,0,1,.85-.6.82.82,0,0,1,.45.1,1,1,0,0,1,.56.82l-.55,6.67q5.84-7.06,6.13-7.33a1.24,1.24,0,0,1,.83-.47.93.93,0,0,1,.51.13.9.9,0,0,1,.5.8,1.44,1.44,0,0,1-.24.79q-.32.43-7.31,8.77l1.87,1.56q5.38,4.49,6.12,5.18a1.38,1.38,0,0,1,.51.84.89.89,0,0,1-.15.54.92.92,0,0,1-.78.49,1.33,1.33,0,0,1-.81-.24q-.44-.28-7.6-6.38Q102.38,200.81,102.22,202.11Z" style="fill:#e0e0e0"></path><path d="M117,201.56c-.09.67-.41,1-.94,1.05a.91.91,0,0,1-.54-.14,1.15,1.15,0,0,1-.52-1l1.62-17.12a2.19,2.19,0,0,1,0-.36,1,1,0,0,1,1.91.24Q117.09,201,117,201.56Z" style="fill:#e0e0e0"></path><path d="M133.75,200.92c-.06.64-.38,1-.94,1a1.25,1.25,0,0,1-1.08-.69l-6.82-14.05c0,.68-.12,1.44-.2,2.28q-.83,10.35-1,11.8c-.08.68-.41,1-1,1.06a1,1,0,0,1-.54-.14,1.17,1.17,0,0,1-.53-1q1.57-17.07,1.58-17.12a1.39,1.39,0,0,1,.12-.41,1.22,1.22,0,0,1,2-.1l6.78,13.75,1.28-13.6a1.34,1.34,0,0,1,.1-.43.88.88,0,0,1,.81-.58.92.92,0,0,1,.5.12.94.94,0,0,1,.5.82c0,.29-.05.59-.08.91Q134,199.26,133.75,200.92Z" style="fill:#e0e0e0"></path><path d="M144.68,191.75l4.61-.18a1.09,1.09,0,0,1,.5.1,1,1,0,0,1,.53.85,1.39,1.39,0,0,1,0,.3c-.08.39-.16.78-.26,1.18a13.2,13.2,0,0,1-2.68,5.33,5.46,5.46,0,0,1-3.84,2.18,3.54,3.54,0,0,1-.56,0,4.49,4.49,0,0,1-3.22-2.14,10.4,10.4,0,0,1-1.59-5.48,15,15,0,0,1,.39-4,13.23,13.23,0,0,1,2.52-5.44,5.57,5.57,0,0,1,4.06-2.37,4,4,0,0,1,1.76.33,5.68,5.68,0,0,1,2.82,3.25,1.1,1.1,0,0,1,.13.46,1.11,1.11,0,0,1-.12.5.94.94,0,0,1-.83.52.89.89,0,0,1-.32,0,1,1,0,0,1-.65-.6l-.05-.08a5.22,5.22,0,0,0-.6-1.07,2.66,2.66,0,0,0-2.26-1.23,2.62,2.62,0,0,0-1.5.62,8.26,8.26,0,0,0-2.37,3.71,13.61,13.61,0,0,0-.88,5.23,9.3,9.3,0,0,0,.95,4.05,2.69,2.69,0,0,0,2.47,1.71,3.33,3.33,0,0,0,2.18-1.43,12.36,12.36,0,0,0,2.19-4.37c-2.12.08-3.22.12-3.3.09-.73-.08-1.11-.44-1.15-1.07a.9.9,0,0,1,.09-.33A1,1,0,0,1,144.68,191.75Z" style="fill:#e0e0e0"></path><path d="M79.67,89.88l1.16,1.93a13.22,13.22,0,0,0,5.45,5l2,1L86.36,99a13.22,13.22,0,0,0-5,5.45l-1,2-1.16-1.93a13.25,13.25,0,0,0-5.44-5l-2-1,1.93-1.16a13.19,13.19,0,0,0,5-5.44Z" style="fill:#ebebeb"></path><path d="M110.07,235.92l1.15,1.93a13.22,13.22,0,0,0,5.45,5l2,1L116.76,245a13.21,13.21,0,0,0-5,5.44l-1,2-1.15-1.93a13.22,13.22,0,0,0-5.45-5l-2-1,1.93-1.16a13.22,13.22,0,0,0,5-5.45Z" style="fill:#ebebeb"></path><path d="M182.21,111.78l.36.58a3.93,3.93,0,0,0,1.65,1.53l.61.31-.58.35a4,4,0,0,0-1.53,1.65l-.31.61-.35-.58a4,4,0,0,0-1.65-1.53l-.62-.31.59-.35a4,4,0,0,0,1.53-1.65Z" style="fill:#e0e0e0"></path><path d="M71.85,236.22l.44.74a5,5,0,0,0,2.07,1.91l.76.38-.73.44a5,5,0,0,0-1.91,2.07l-.38.76-.44-.73a5,5,0,0,0-2.07-1.91l-.77-.38.74-.44A5,5,0,0,0,71.47,237Z" style="fill:#e0e0e0"></path><path d="M142.12,227.83l.44.73a5.08,5.08,0,0,0,2.07,1.91l.77.38-.73.44a5.1,5.1,0,0,0-1.92,2.07l-.38.77-.44-.73a5,5,0,0,0-2.07-1.92l-.76-.38.73-.44a5,5,0,0,0,1.91-2.07Z" style="fill:#e0e0e0"></path><path d="M130.47,66.84l.42.71a4.91,4.91,0,0,0,2,1.85l.74.37-.71.42a4.82,4.82,0,0,0-1.85,2l-.37.74-.43-.71a4.89,4.89,0,0,0-2-1.85l-.74-.36.71-.43a4.76,4.76,0,0,0,1.85-2Z" style="fill:#e0e0e0"></path><path d="M84.77,126.92a2.09,2.09,0,0,1-.07.6c-.08.46-.19,1-.31,1.71-.31,1.56-.72,3.68-1.22,6.26-1,5.29-2.3,12.61-3.46,20.74s-1.95,15.53-2.46,20.89c-.24,2.61-.44,4.76-.58,6.35-.07.69-.13,1.26-.18,1.72a2,2,0,0,1-.1.6,2.52,2.52,0,0,1,0-.6c0-.47,0-1,.06-1.74.06-1.5.19-3.68.39-6.37.4-5.37,1.14-12.79,2.3-20.93s2.52-15.47,3.64-20.74c.55-2.64,1-4.77,1.39-6.23.17-.68.31-1.23.43-1.68A2.2,2.2,0,0,1,84.77,126.92Z" style="fill:#e0e0e0"></path><path d="M183.38,183.87a8.22,8.22,0,0,1-.68-1.37c-.41-.89-1-2.19-1.65-3.8-1.36-3.23-3.16-7.73-5-12.74s-3.43-9.59-4.51-12.93c-.55-1.66-1-3-1.24-4a6.89,6.89,0,0,1-.37-1.48,8.23,8.23,0,0,1,.59,1.41c.37,1,.84,2.34,1.41,3.9,1.18,3.29,2.81,7.85,4.67,12.85s3.6,9.52,4.86,12.79l1.47,3.88A7.13,7.13,0,0,1,183.38,183.87Z" style="fill:#e0e0e0"></path><path d="M155.35,71s-.41.12-1.12.46a9.29,9.29,0,0,0-2.8,2,9.45,9.45,0,0,0-2.53,4.75,8.93,8.93,0,0,0,1.55,6.8,9.17,9.17,0,0,0,3.05,2.77,9.6,9.6,0,0,0,4.33,1.13c3.15.14,6.43-.95,9.93-1.74a25,25,0,0,1,22,5.59,23.13,23.13,0,0,1,6.71,10.07A25.34,25.34,0,0,1,197.63,114a22.76,22.76,0,0,1-1.2,5.15,21.51,21.51,0,0,1-2.16,4.5,23.75,23.75,0,0,1-6.07,6.52A24.72,24.72,0,0,1,176.33,135a18.63,18.63,0,0,1-4.72,0,1,1,0,0,1,.31,0h.91a24.55,24.55,0,0,0,3.47-.24A24.88,24.88,0,0,0,188,129.87a23.51,23.51,0,0,0,5.9-6.45,21.06,21.06,0,0,0,2.09-4.41,22.3,22.3,0,0,0,1.15-5A24.8,24.8,0,0,0,196,103a22.48,22.48,0,0,0-6.55-9.81,24.52,24.52,0,0,0-21.53-5.51c-3.47.76-6.8,1.86-10.08,1.7a10,10,0,0,1-4.52-1.22,9.63,9.63,0,0,1-3.17-2.93,9.24,9.24,0,0,1-1.53-7.11,9.62,9.62,0,0,1,2.68-4.84,8.92,8.92,0,0,1,2.92-2A5,5,0,0,1,155.35,71Z" style="fill:#e0e0e0"></path><path d="M154.1,72.73h0a9,9,0,0,1,3.41-12.24l7.83-4.41,8.83,15.65-7.83,4.42A9,9,0,0,1,154.1,72.73Z" style="fill:#ebebeb"></path><path d="M206.11,48.45a3.34,3.34,0,1,1-3.47-3.21A3.34,3.34,0,0,1,206.11,48.45Z" style="fill:#e0e0e0"></path><path d="M133.24,312.38l-5.05,2.54a.85.85,0,0,1-1.23-.81l.32-5.64.32-5.64a.86.86,0,0,1,1.32-.66l4.73,3.1,4.72,3.1a.85.85,0,0,1-.09,1.47Z" style="fill:#e0e0e0"></path><path d="M379.57,288.52a9.54,9.54,0,0,1,1.54-.1l4.18-.09a.66.66,0,0,0,.56-.78,2.34,2.34,0,0,0-.3-.59l-.39-.66-1.69-2.88q-.89-1.53-1.86-3.18l-1-1.69-.5-.86a.64.64,0,0,0-.57-.4.65.65,0,0,0-.58.4l-.49.86c-.34.57-.66,1.14-1,1.69l-1.86,3.18L374,286.3l-.4.66a2.34,2.34,0,0,0-.3.59.66.66,0,0,0,.56.78l4.18.09a9.61,9.61,0,0,1,1.55.1,8.33,8.33,0,0,1-1.55.1c-1,0-2.4.07-4.22.08a1.06,1.06,0,0,1-.92-1.22,2.76,2.76,0,0,1,.34-.73l.38-.67,1.65-2.9,1.83-3.2,1-1.69.49-.86a1.13,1.13,0,0,1,2,0c.17.29.33.58.5.86.32.58.65,1.14,1,1.69.63,1.11,1.24,2.18,1.83,3.2s1.12,2,1.64,2.9l.38.67a2.48,2.48,0,0,1,.34.73,1.05,1.05,0,0,1-.92,1.22c-1.81,0-3.22-.05-4.22-.08A8.27,8.27,0,0,1,379.57,288.52Z" style="fill:#e0e0e0"></path><path d="M270.65,100.55a2.86,2.86,0,0,1,.56.26l1.55.85,5.63,3.16a1.12,1.12,0,0,0,1.49-.66,3.61,3.61,0,0,0,.06-1.07v-1.18c0-1.61,0-3.33,0-5.14V86.56a1.08,1.08,0,0,0-1.73-1l-1.33.77-2.61,1.49-4.93,2.81-4.46,2.54-1,.58a4.12,4.12,0,0,0-.9.58,1.13,1.13,0,0,0,.17,1.63l5.54,3.32,1.5.93a2.12,2.12,0,0,1,.5.35,2.67,2.67,0,0,1-.55-.26l-1.55-.84c-1.35-.76-3.26-1.81-5.66-3.21a1.5,1.5,0,0,1-.25-2.18,3.65,3.65,0,0,1,1-.68l1-.6,4.44-2.57L274,87.37l2.6-1.5,1.33-.77a1.59,1.59,0,0,1,2.51,1.46V88.1c0,1,0,2,0,3,0,2,0,3.86,0,5.68s0,3.52,0,5.13c0,.4,0,.8,0,1.19a3.61,3.61,0,0,1-.1,1.2,1.51,1.51,0,0,1-2,.86c-2.4-1.4-4.27-2.53-5.58-3.33l-1.5-.93A2.38,2.38,0,0,1,270.65,100.55Z" style="fill:#e0e0e0"></path><path d="M356.67,212.31a21.37,21.37,0,0,0-.5-3.15,12.89,12.89,0,0,0-4.75-7,12.53,12.53,0,0,0-5.39-2.37,12.78,12.78,0,0,0-6.71.57,12.74,12.74,0,0,0-5.92,4.45,12.69,12.69,0,0,0,0,15.07,11.93,11.93,0,0,0,2.69,2.71,12.39,12.39,0,0,0,3.23,1.75,12.89,12.89,0,0,0,16.85-8.84,21.58,21.58,0,0,0,.5-3.15,4.74,4.74,0,0,1,0,.83,6.66,6.66,0,0,1-.07,1,9.5,9.5,0,0,1-.25,1.36,13.07,13.07,0,0,1-10.25,9.78,13.26,13.26,0,0,1-6.95-.54,12.42,12.42,0,0,1-3.36-1.8,12.28,12.28,0,0,1-2.81-2.81,13.15,13.15,0,0,1,0-15.67,12.28,12.28,0,0,1,2.81-2.81,12.12,12.12,0,0,1,3.36-1.79,13.11,13.11,0,0,1,12.49,1.95,12.93,12.93,0,0,1,4.71,7.29,9,9,0,0,1,.25,1.36,6.46,6.46,0,0,1,.07,1A4.9,4.9,0,0,1,356.67,212.31Z" style="fill:#e0e0e0"></path><path d="M94.59,352.1a1.32,1.32,0,0,1,.11-.31L95,351l1.32-3.14c1.16-2.71,2.79-6.49,4.72-11l.12.3L86,330.44l.34-.13h0l0,0,0,.07-.06.13-.11.26-.23.52-.45,1c-.31.68-.6,1.36-.9,2l-1.74,3.93-3.18,7.15-.12-.29,10.91,4.93,3.08,1.43.83.39.29.15a7.82,7.82,0,0,1-1.07-.41l-3.09-1.3L79.3,345.61l-.21-.09.09-.21c1-2.21,2-4.62,3.14-7.18l1.73-3.93.89-2,.46-1,.22-.52.12-.26.06-.13,0-.07,0,0v0h0l.35-.13,15.18,6.73.21.09-.1.21c-2,4.52-3.76,8.31-5,11-.58,1.27-1,2.29-1.4,3A8.67,8.67,0,0,1,94.59,352.1Z" style="fill:#e0e0e0"></path><rect x="406.05" y="217.01" width="16.61" height="16.61" transform="translate(-56.5 197.99) rotate(-25.22)" style="fill:#e0e0e0"></rect><rect x="49.78" y="304.98" width="7.13" height="7.13" transform="translate(-250.5 232.9) rotate(-66.21)" style="fill:#e0e0e0"></rect><rect x="430.36" y="304.95" width="7.13" height="7.13" transform="translate(-23.42 581.11) rotate(-66.21)" style="fill:#e0e0e0"></rect></g><g id="freepik--Plant--inject-2"><path d="M428.85,419.73c-7.62-4.42-11.7-14.7-12-23.12s3.2-17.19,10.1-22c7.27-5.08,17.62-5,25.09-.21s11.84,13.81,11.5,22.67a30.08,30.08,0,0,1-12.31,22.58" style="fill:#F26840"></path><path d="M441,420.54a9.5,9.5,0,0,1-.14-1.92c0-1.38-.09-3.14-.15-5.25-.11-4.43-.29-10.55-.58-17.3s-.67-12.87-.94-17.3c-.13-2.1-.23-3.86-.32-5.24a9.88,9.88,0,0,1,0-1.93,11.72,11.72,0,0,1,.3,1.91c.15,1.23.34,3,.54,5.23.41,4.41.85,10.53,1.15,17.29s.39,12.9.37,17.33c0,2.22,0,4-.07,5.26A10.55,10.55,0,0,1,441,420.54Z" style="fill:#fff"></path><path d="M419.1,394.71c0,.2-1.23.26-2.71.13s-2.68-.38-2.66-.57,1.23-.26,2.71-.14S419.12,394.51,419.1,394.71Z" style="fill:#263238"></path><path d="M419.52,387.16c-.08.18-1.13-.11-2.34-.65s-2.14-1.12-2.06-1.3,1.13.11,2.35.65S419.6,387,419.52,387.16Z" style="fill:#263238"></path><path d="M423.4,381.56c-.1.16-1.28-.4-2.5-1.41s-2-2.07-1.86-2.2,1.12.67,2.31,1.65S423.51,381.39,423.4,381.56Z" style="fill:#263238"></path><path d="M427.31,376.27c-.18.08-.75-.8-1.26-2s-.79-2.18-.61-2.26.75.8,1.26,2S427.49,376.19,427.31,376.27Z" style="fill:#263238"></path><path d="M433.44,372.52c-.18.08-.79-.86-1.19-2.16s-.44-2.43-.25-2.46.54,1,.93,2.24S433.62,372.43,433.44,372.52Z" style="fill:#263238"></path><path d="M443.67,368.29c.18.06.07.87-.26,1.79s-.74,1.62-.92,1.55-.08-.86.25-1.79S443.48,368.22,443.67,368.29Z" style="fill:#263238"></path><path d="M451.25,371.54c.14.15-.35.82-1.08,1.5s-1.44,1.11-1.57,1,.35-.81,1.08-1.49S451.12,371.4,451.25,371.54Z" style="fill:#263238"></path><path d="M457.93,375.86c.11.16-.48.75-1.32,1.32s-1.62.91-1.73.74.48-.76,1.33-1.33S457.82,375.69,457.93,375.86Z" style="fill:#263238"></path><path d="M462.68,382.29c.07.18-.86.75-2.09,1.28s-2.3.8-2.37.62.85-.76,2.09-1.28S462.6,382.11,462.68,382.29Z" style="fill:#263238"></path><path d="M464.54,389.3c0,.2-.92.47-2.12.62s-2.19.11-2.22-.08.93-.48,2.13-.63S464.52,389.1,464.54,389.3Z" style="fill:#263238"></path><path d="M465.51,397.93c-.07.18-1.09-.08-2.26-.59s-2.06-1.07-2-1.25,1.09.08,2.27.59S465.59,397.75,465.51,397.93Z" style="fill:#263238"></path><path d="M464.66,405.34c-.06.18-1.35-.12-2.69-1s-2.13-1.93-2-2.06,1.12.64,2.39,1.46S464.73,405.15,464.66,405.34Z" style="fill:#263238"></path><path d="M460.8,412.09c-.12.15-1.14-.45-2.12-1.51s-1.5-2.11-1.34-2.22.93.73,1.87,1.74S460.93,411.93,460.8,412.09Z" style="fill:#263238"></path><path d="M424.17,412.88c.1.17-1,.91-2.39,1.65s-2.63,1.19-2.72,1,1-.91,2.39-1.65S424.08,412.7,424.17,412.88Z" style="fill:#263238"></path><path d="M420.83,406.78c.08.18-.78.74-1.92,1.26s-2.13.79-2.21.61.77-.74,1.92-1.26S420.75,406.6,420.83,406.78Z" style="fill:#263238"></path><path d="M418.37,401.38c0,.19-1,.5-2.36.69s-2.44.19-2.46,0,1-.51,2.36-.7S418.34,401.18,418.37,401.38Z" style="fill:#263238"></path><path d="M426.44,398.4c.06.18-1,.66-2.35.82s-2.49-.09-2.48-.28,1.09-.28,2.4-.43S426.38,398.2,426.44,398.4Z" style="fill:#263238"></path><path d="M433.14,391.73c.06.18-.77.6-1.87.71s-2-.14-2-.33.87-.28,1.9-.38S433.08,391.54,433.14,391.73Z" style="fill:#263238"></path><path d="M434.42,386.39c-.07.18-.95.05-2-.31s-1.81-.8-1.75-1,.95-.05,2,.3S434.48,386.2,434.42,386.39Z" style="fill:#263238"></path><path d="M436.88,381c-.14.13-.75-.27-1.19-1s-.48-1.48-.29-1.53.52.51.91,1.18S437,380.85,436.88,381Z" style="fill:#263238"></path><path d="M433.91,403.1c0,.19-.72.55-1.72.79a6.61,6.61,0,0,1-1.44.21l-.14-.41c.26-.05.42,0,.46,0s-.07.2-.28.36l-.14-.42a6.39,6.39,0,0,1,1.38-.47C433,403,433.87,402.91,433.91,403.1Z" style="fill:#263238"></path><path d="M435.29,412.57c.08.18-.91.74-2.19,1.25s-2.38.76-2.45.58.91-.74,2.19-1.25S435.22,412.39,435.29,412.57Z" style="fill:#263238"></path><path d="M427.72,408.36c.07.19-.59.58-1.46.88s-1.63.38-1.69.2.59-.58,1.46-.88S427.66,408.18,427.72,408.36Z" style="fill:#263238"></path><path d="M428.3,389.09c0,.19-1.18.07-2.5-.39s-2.27-1.1-2.19-1.27,1.15.14,2.43.59S428.35,388.89,428.3,389.09Z" style="fill:#263238"></path><path d="M446.62,387c.11.17-.53.78-1.43,1.38s-1.72.94-1.83.77.54-.78,1.44-1.37S446.51,386.83,446.62,387Z" style="fill:#263238"></path><path d="M447.62,396.5c0,.2-.64.5-1.51.68s-1.61.17-1.65,0,.63-.5,1.51-.68S447.58,396.31,447.62,396.5Z" style="fill:#263238"></path><path d="M448.78,407.2c-.09.17-1.06-.1-2.17-.61s-1.95-1.08-1.87-1.26,1.05.09,2.17.61S448.86,407,448.78,407.2Z" style="fill:#263238"></path><path d="M446.33,417.61c-.16.12-.79-.39-1.41-1.15s-1-1.48-.86-1.61.78.39,1.41,1.15S446.48,417.48,446.33,417.61Z" style="fill:#263238"></path><path d="M445.82,380c.13.15-.29.68-1,1s-1.38.38-1.43.2.47-.51,1.11-.83S445.7,379.83,445.82,380Z" style="fill:#263238"></path><path d="M454.8,389.58c.07.18-.76.64-1.9.8s-2.06-.06-2-.25.89-.31,1.95-.46S454.74,389.39,454.8,389.58Z" style="fill:#263238"></path><path d="M453,381c.09.18-.73.76-1.91,1.14s-2.18.37-2.21.18.88-.51,2-.86S452.92,380.79,453,381Z" style="fill:#263238"></path><path d="M456.76,402.92c0,.19-1.41.32-3.11,0s-3-.91-2.92-1.09,1.4.1,3,.39S456.77,402.72,456.76,402.92Z" style="fill:#263238"></path><path d="M453.43,415.43c-.12.15-1.16-.46-2.2-1.51s-1.64-2.08-1.49-2.2,1,.69,2,1.7S453.55,415.27,453.43,415.43Z" style="fill:#263238"></path><path d="M438.76,370.79a32.8,32.8,0,0,0-6.26,4.95A30.49,30.49,0,0,0,424.7,393a38.52,38.52,0,0,0,.47,10.57,80,80,0,0,0,2,8.48c.69,2.38,1.32,4.29,1.74,5.62a12.25,12.25,0,0,1,.6,2.08,13,13,0,0,1-.86-2c-.5-1.3-1.21-3.19-2-5.57a71,71,0,0,1-2.14-8.51A37.78,37.78,0,0,1,424,392.9a30.07,30.07,0,0,1,8.14-17.51,22.43,22.43,0,0,1,4.67-3.65c.6-.37,1.11-.57,1.43-.74A1.81,1.81,0,0,1,438.76,370.79Z" style="fill:#fff"></path><path d="M448.5,420.19a82.42,82.42,0,0,0,3.21-7.67,43.5,43.5,0,0,0,1.92-19.73,37.6,37.6,0,0,0-3-10.52,25,25,0,0,0-5.19-7.22,18.87,18.87,0,0,0-5.08-3.21c-1.32-.55-2.12-.68-2.1-.74s.2,0,.58,0a11.09,11.09,0,0,1,1.62.44,17.49,17.49,0,0,1,5.31,3.09,24.39,24.39,0,0,1,5.45,7.32,36.77,36.77,0,0,1,3.16,10.7,42,42,0,0,1-2.15,20c-.41,1.24-.93,2.29-1.31,3.25s-.84,1.72-1.19,2.35A14.2,14.2,0,0,1,448.5,420.19Z" style="fill:#fff"></path><polygon points="420.83 418.5 460.2 418.5 460.45 426.38 420.83 426.38 420.83 418.5" style="fill:#263238"></polygon><polygon points="424.18 422.44 426.44 446.5 455.22 446.5 457.53 422.7 424.18 422.44" style="fill:#263238"></polygon><path d="M460.45,426.48c0,.19-8.87.35-19.81.35s-19.8-.16-19.8-.35,8.86-.36,19.8-.36S460.45,426.28,460.45,426.48Z" style="fill:#455a64"></path><path d="M456.44,433.8a5.54,5.54,0,0,1-.84,1.51,22.13,22.13,0,0,1-3.05,3.6l-.18.18-.18-.19a56.85,56.85,0,0,0-7.72-6.76l.44,0c-1.1,1-2.25,2-3.42,3l-4.05,3.52-.22.19-.23-.19-6.57-5.52.38,0c-1.36,1.65-2.5,3-3.4,4.15a9.33,9.33,0,0,1-1.34,1.46,10.19,10.19,0,0,1,1.1-1.65l3.22-4.3.16-.22.22.18,6.67,5.41H437l4-3.54c1.17-1,2.32-2,3.43-3l.21-.19.22.17a50.13,50.13,0,0,1,7.68,7h-.36A38.79,38.79,0,0,0,456.44,433.8Z" style="fill:#455a64"></path></g><g id="freepik--Floor--inject-2"><path d="M453.46,446.6c0,.15-91.1.26-203.45.26s-203.47-.11-203.47-.26,91.08-.26,203.47-.26S453.46,446.46,453.46,446.6Z" style="fill:#263238"></path></g><g id="freepik--Character--inject-2"><path d="M222.72,412.27s-22.79,4-26.4,3.14-15.94-1.55-17.74.13-15.64,68.74-10.83,67.83S198,445.77,198,445.77c1.21-.23,31.88-5.72,31.88-5.72Z" style="fill:#455a64"></path><path d="M385.51,370s-27-7.57-48.88.9S307,374.56,307,374.56l-54.4,28.75L258,421.53l74.84-29.81Z" style="fill:#263238"></path><path d="M247.54,421.34l106.57-52.15s24.52-1.79,31.4.76,16,20.31,16,28.91,2.29,8.66-2.87,18.08-41.82,28.33-41.82,28.33l-52.14,6.35-40.51-9.88Z" style="fill:#263238"></path><path d="M355.71,369.09a1.1,1.1,0,0,1-.25.1l-.74.25-2.86.89-2.07.63c-.74.26-1.54.58-2.41.9-1.72.67-3.71,1.34-5.82,2.33l-3.33,1.48c-1.15.53-2.32,1.15-3.54,1.76-2.47,1.18-5,2.65-7.68,4.13-5.31,3.09-11,6.71-16.93,10.65s-11.5,7.75-16.66,11.11c-2.59,1.66-5.05,3.25-7.4,4.65-1.18.71-2.29,1.42-3.4,2l-3.18,1.8a120.21,120.21,0,0,1-13.53,6.63l.23-.14c.19-.09.42-.2.7-.35l2.69-1.31,2-.93c.71-.36,1.46-.77,2.28-1.2,1.62-.88,3.51-1.82,5.5-3l3.16-1.83c1.1-.64,2.21-1.35,3.37-2.06,2.34-1.42,4.78-3,7.37-4.69,5.14-3.38,10.73-7.2,16.63-11.15s11.64-7.55,17-10.63c2.71-1.47,5.24-2.93,7.73-4.1,1.23-.6,2.4-1.21,3.56-1.74l3.36-1.45c2.12-1,4.13-1.62,5.87-2.26.87-.31,1.67-.62,2.43-.86l2.08-.59,2.89-.81.76-.19Z" style="fill:#455a64"></path><path d="M263.62,421.85s23.06,3,26.66,2.13,15.94-1.54,17.75.13,15.64,68.74,10.83,67.84-30.28-37.6-30.28-37.6c-1.21-.23-31.87-5.73-31.87-5.73Z" style="fill:#455a64"></path><path d="M255.84,396.38s-113.35-24.33-127.1-21.61S98.11,389,95.82,404.49s-1.63,26.28,15.56,35.45,152.62,10,152.62,10l3.9-29-21.45-7.48,11.88,4.82Z" style="fill:#263238"></path><path d="M263.35,446.6s0-.15.06-.45.12-.77.21-1.34c.2-1.2.48-2.92.85-5.12.77-4.47,1.88-10.89,3.24-18.82l.17.22c-7.71-.86-16.37-4-25.68-7.89s-19.35-8.59-30.08-13a160.43,160.43,0,0,0-16.23-5.83A49.16,49.16,0,0,0,180.11,392a68.58,68.58,0,0,0-14.33,2.18c-4.42,1.08-8.49,2.3-12.24,3.31a84.25,84.25,0,0,1-18.06,3.37l-2.89,0c-.84,0-1.55-.09-2.12-.12l-1.29-.1-.44-.05h.44l1.3.05c.57,0,1.27.1,2.11.06l2.88-.07a87.68,87.68,0,0,0,18-3.52c3.74-1,7.81-2.27,12.24-3.38a69,69,0,0,1,14.42-2.24c5.17-.27,10.56.8,15.93,2.34a159.75,159.75,0,0,1,16.29,5.84c10.75,4.43,20.76,9.16,30.07,13.05s17.9,7.07,25.53,7.95l.2,0,0,.19c-1.43,7.92-2.6,14.33-3.41,18.8-.41,2.19-.73,3.91-.95,5.1-.11.56-.2,1-.26,1.33A4.3,4.3,0,0,1,263.35,446.6Z" style="fill:#455a64"></path><path d="M148.8,397.69c-.06.08-1.11-.73-3-1.77a30.17,30.17,0,0,0-7.67-3,29.77,29.77,0,0,0-8.2-.8c-2.12.09-3.42.32-3.44.23a3.86,3.86,0,0,1,.9-.25,20.05,20.05,0,0,1,2.52-.35A26.62,26.62,0,0,1,146,395.6a19,19,0,0,1,2.08,1.46A3.9,3.9,0,0,1,148.8,397.69Z" style="fill:#455a64"></path><path d="M308.72,430.56s-.25.12-.73.23a12.34,12.34,0,0,1-2.05.28,18.32,18.32,0,0,1-6.78-.87,18.12,18.12,0,0,1-6-3.3,13.2,13.2,0,0,1-1.49-1.44,2.5,2.5,0,0,1-.46-.61c.07-.07.81.72,2.18,1.76a20.23,20.23,0,0,0,12.51,4.09C307.64,430.67,308.7,430.47,308.72,430.56Z" style="fill:#263238"></path><path d="M316.69,465.28c0,.09-1,0-2.49.15a18,18,0,0,0-10.67,4.74c-1.12,1-1.71,1.79-1.78,1.74a7.48,7.48,0,0,1,1.52-2,16.12,16.12,0,0,1,5-3.47,16.29,16.29,0,0,1,5.92-1.37A7.45,7.45,0,0,1,316.69,465.28Z" style="fill:#263238"></path><path d="M283.09,208.3c1.17,1.57,3.48,1.77,5.38,1.28s3.62-1.51,5.53-1.94a9.56,9.56,0,0,1,10.79,6.07c.62,1.83.65,3.8,1.1,5.68.8,3.37,2.91,6.25,4.52,9.31s2.77,6.72,1.52,10c-1.4,3.62-5.55,5.6-9.43,5.52s-7.52-1.81-10.87-3.76-6.6-4.17-10.29-5.39-8-1.3-11.19.89A101.74,101.74,0,0,1,269,217.38" style="fill:#263238"></path><path d="M305.57,205s-.17.07-.44.25a2,2,0,0,0-.77,1.13,2,2,0,0,0,.54,2,2.92,2.92,0,0,0,2.64.86,4,4,0,0,0,2.77-2,4.51,4.51,0,0,0,.12-3.91,6.31,6.31,0,0,0-3-3.22,11.24,11.24,0,0,0-9.53-.06,9.13,9.13,0,0,0-3.37,3c-.86,1.2-1.54,2.46-2.3,3.57a11.62,11.62,0,0,1-2.49,2.81,5.59,5.59,0,0,1-2.85,1.22,4.57,4.57,0,0,1-2.33-.28,3.23,3.23,0,0,1-1.22-.83,1.35,1.35,0,0,1-.3-.42,4.21,4.21,0,0,0,1.6,1.06,5,5,0,0,0,4.87-1,11.41,11.41,0,0,0,2.36-2.76c.73-1.1,1.39-2.36,2.27-3.61a9.42,9.42,0,0,1,3.53-3.19,11.6,11.6,0,0,1,10,.06,6.74,6.74,0,0,1,3.25,3.5,4.93,4.93,0,0,1-.2,4.3,4.41,4.41,0,0,1-3.09,2.14,3.26,3.26,0,0,1-2.91-1,2.3,2.3,0,0,1-.52-2.27,2,2,0,0,1,.92-1.16A1.16,1.16,0,0,1,305.57,205Z" style="fill:#263238"></path><path d="M300.54,228.24a9.75,9.75,0,0,0,.51-4.31,13.26,13.26,0,0,0-1.47-4.47,11.76,11.76,0,0,0-3.64-4.39,8.8,8.8,0,0,0-5.53-1,26.89,26.89,0,0,1-4.84.12,6.89,6.89,0,0,1-3.12-1,4.31,4.31,0,0,1-.69-.57c-.14-.16-.2-.24-.19-.25s.33.27,1,.64a6.94,6.94,0,0,0,3,.83,29.57,29.57,0,0,0,4.78-.23,13.26,13.26,0,0,1,2.88,0,6.86,6.86,0,0,1,3,1,12,12,0,0,1,3.79,4.61,12.79,12.79,0,0,1,1.4,4.65,8,8,0,0,1-.35,3.27,6,6,0,0,1-.35.82C300.61,228.16,300.56,228.25,300.54,228.24Z" style="fill:#455a64"></path><path d="M192.55,383.56c22.65,17.35,55.37,34.89,75.35,30.38,7.66-1.73,21.1-16.66,27.74-20.85s12.28-10.28,14.95-17.67L301.08,359,200.31,381.17Z" style="fill:#F26840"></path><path d="M325.55,243.56s4.37,4.76,5.05,7.51,12,37.05,12,37.05,22.58,61.9,11.58,75.47c-5.4,6.67-32.32,12.68-45.5,8.51L304,334.2a10.31,10.31,0,0,1,11.84-4.27l-10.32-23,.34-35.68,16.52-27.1" style="fill:#F26840"></path><path d="M171.08,265.35,149,340.09s-6,16.34-6,20.32-.79,10.76,6.38,14.75,16.33,11.32,25.5,7,17.93-6.66,17.53-14.23-2.79-23.11-2.79-23.11l9.56-46.21Z" style="fill:#F26840"></path><path d="M326.21,244.18s-20.69-20.54-57.13-22.94l-42.76,2.37c-1.35.53-37.18,11.37-46.09,21.74-6.53,7.59-9.15,20-9.15,20l26.27,53.9,3.45,44.34-8.25,20,118-8.14-5-89.22Z" style="fill:#F26840"></path><path d="M163.29,337.39c0,.09-1.34.25-3.41,1a21,21,0,0,0-7.24,4.34,20.67,20.67,0,0,0-4.83,6.92c-.86,2-1.12,3.36-1.21,3.34a3.26,3.26,0,0,1,.12-1,15.53,15.53,0,0,1,.75-2.52A19.11,19.11,0,0,1,159.77,338a16.5,16.5,0,0,1,2.56-.57A3.06,3.06,0,0,1,163.29,337.39Z" style="fill:#263238"></path><path d="M163.12,338a29.08,29.08,0,0,0-4.33-1.12,27.41,27.41,0,0,0-4.48.12,9.2,9.2,0,0,1,8.81,1Z" style="fill:#263238"></path><path d="M183.89,361.54a2.89,2.89,0,0,1-.46.79,17.24,17.24,0,0,1-1.55,2,23.89,23.89,0,0,1-6.49,5.09,24.16,24.16,0,0,1-7.84,2.58,17.93,17.93,0,0,1-2.5.19,2.73,2.73,0,0,1-.91-.06c0-.09,1.3-.12,3.35-.5a26.21,26.21,0,0,0,14.12-7.55C183.06,362.55,183.81,361.48,183.89,361.54Z" style="fill:#263238"></path><g style="opacity:0.30000000000000004"><path d="M165,372.83a16.91,16.91,0,0,0,17.69-6c1.35-1.8,2.67-4.11,4.92-4.32,1.08-.11,2.66,0,2.77-1.08.06-.62-.53-1.11-1.11-1.34a5.68,5.68,0,0,0-5.31,1.16,26.7,26.7,0,0,0-3.81,4.19c-3.43,4.1-10.11,5.59-15.15,7.4"></path></g><path d="M194.71,313.62c-.15,0-1.37-8.64-2.73-19.33s-2.36-19.39-2.21-19.41,1.36,8.64,2.72,19.34S194.85,313.6,194.71,313.62Z" style="fill:#263238"></path><path d="M338.58,343.67a29.89,29.89,0,0,0-4.28-4.53,33.81,33.81,0,0,0-5.64-3.71c-2.25-1.2-4.82-2.35-7.54-3.52a22.2,22.2,0,0,0-7.85-2.37,8.38,8.38,0,0,0-1.82.1c-.57.09-1.13.29-1.69.43a12.71,12.71,0,0,0-2.93,1.05,7.35,7.35,0,0,0-2.95,3.3c-.48,1-.66,1.54-.71,1.52s0-.15.1-.43a8.71,8.71,0,0,1,.43-1.18,7.26,7.26,0,0,1,2.95-3.53,12.23,12.23,0,0,1,3-1.14,17,17,0,0,1,1.72-.47,8.7,8.7,0,0,1,1.92-.13,22.21,22.21,0,0,1,8,2.37c2.71,1.18,5.29,2.34,7.55,3.58a31.73,31.73,0,0,1,5.66,3.85,20.78,20.78,0,0,1,3.14,3.38c.33.44.54.81.69,1.05A1.69,1.69,0,0,1,338.58,343.67Z" style="fill:#263238"></path><path d="M342.47,336.32a19.78,19.78,0,0,1-2.62-1.55,30.64,30.64,0,0,0-6.5-3.22,13.78,13.78,0,0,0-7.11-.48,21.54,21.54,0,0,0-2.84,1,2.31,2.31,0,0,1,.66-.48,8.67,8.67,0,0,1,2.09-.86,13.19,13.19,0,0,1,7.36.34,26.35,26.35,0,0,1,6.54,3.41A16,16,0,0,1,342.47,336.32Z" style="fill:#263238"></path><path d="M190.3,261.11a20.06,20.06,0,0,1-.56-2.63,45.22,45.22,0,0,0-4.31-12.15,20.07,20.07,0,0,1-1.23-2.4,10.09,10.09,0,0,1,1.55,2.22,34.06,34.06,0,0,1,2.76,5.92,34.92,34.92,0,0,1,1.59,6.34A10.9,10.9,0,0,1,190.3,261.11Z" style="fill:#263238"></path><path d="M316.87,246.75c.06.05-.8,1.25-2.1,3.25a77.22,77.22,0,0,0-4.55,8.1,74.42,74.42,0,0,0-3.47,8.63c-.75,2.26-1.14,3.68-1.22,3.66a3.58,3.58,0,0,1,.16-1c.14-.65.37-1.59.71-2.74a57.37,57.37,0,0,1,3.35-8.74,58.7,58.7,0,0,1,4.72-8.09c.69-1,1.27-1.75,1.7-2.27A3.76,3.76,0,0,1,316.87,246.75Z" style="fill:#263238"></path><path d="M299.41,381.93s-.07.06-.21.13l-.66.33c-.58.29-1.44.71-2.56,1.22-2.22,1-5.47,2.5-9.55,4.15-8.13,3.27-19.72,7.38-33.12,8.87a82.73,82.73,0,0,1-18.92-.11,67,67,0,0,1-15-3.62,54.47,54.47,0,0,1-9.4-4.48c-1.08-.6-1.84-1.18-2.38-1.53l-.61-.42a1.31,1.31,0,0,1-.2-.15s.08,0,.23.11l.63.37c.57.32,1.34.88,2.43,1.45a59.18,59.18,0,0,0,9.43,4.31A68.13,68.13,0,0,0,234.45,396a83.52,83.52,0,0,0,18.8.07c13.33-1.48,24.89-5.52,33.05-8.69,4.08-1.61,7.35-3,9.6-4l2.59-1.13.68-.29Z" style="fill:#263238"></path><path d="M258.05,249.68a3.94,3.94,0,0,1-.94.53,8.18,8.18,0,0,1-1.16.52,14.15,14.15,0,0,1-1.58.57,23.73,23.73,0,0,1-4.29.91,26.84,26.84,0,0,1-5.38,0,26.49,26.49,0,0,1-5.25-1.17,23.15,23.15,0,0,1-4-1.82,16.47,16.47,0,0,1-1.43-.9,10.4,10.4,0,0,1-1-.76,5.34,5.34,0,0,1-.8-.72c.07-.09,1.25.9,3.43,2.06a25.61,25.61,0,0,0,4,1.68A25.86,25.86,0,0,0,250,251.73a25.41,25.41,0,0,0,4.24-.78C256.64,250.29,258,249.58,258.05,249.68Z" style="fill:#fff"></path><path d="M305,279.38a2.08,2.08,0,0,1,.1.52c.06.4.12.89.2,1.48.16,1.29.37,3.16.6,5.47.46,4.61,1,11,1.42,18.08s.63,13.48.71,18.13c0,2.32.06,4.19,0,5.49,0,.6,0,1.1,0,1.5a1.93,1.93,0,0,1,0,.52,1.81,1.81,0,0,1-.06-.52c0-.4-.05-.89-.08-1.49-.05-1.38-.13-3.23-.22-5.49-.17-4.64-.44-11-.86-18.11s-.9-13.46-1.27-18.08c-.18-2.26-.32-4.11-.43-5.48l-.1-1.49A1.84,1.84,0,0,1,305,279.38Z" style="fill:#263238"></path><g style="opacity:0.30000000000000004"><path d="M200.09,354.44c8.56-.16,17.62-.19,25,4.2,4.72,2.82,8.29,7.23,12.84,10.31a27.82,27.82,0,0,0,19.39,4.46c5.59-.81,10.92-3.34,16.57-3.44,5-.08,9.83,1.76,14.72,2.85a50.62,50.62,0,0,0,23-.22c-1.85-3.19-5.56-4.71-9-6a457.41,457.41,0,0,0-103.14-24.71"></path></g><g style="opacity:0.30000000000000004"><path d="M160,336.78c-1.46.19-3.25.22-4-1a2.65,2.65,0,0,1,1.13-3.41,7.77,7.77,0,0,1,3.85-.82c-1.67-1.43-.61-4.28,1.1-5.66s4-2.14,5.27-3.92c1-1.41,1.34-3.31,2.62-4.49,1.78-1.65,4.66-1.23,6.81-2.36,2.77-1.45,3.57-4.95,4.27-8a83.85,83.85,0,0,1,9.87-23.5c2.65,18.68,5.91,38.7,6.21,57.56,0,1.38-2.39,2.16-3.06,3.36-.88,1.58-2.7,2.35-4.42,2.9-4.13,1.3-8.63,1.86-12.79.64s-7.87-4.49-8.79-8.72l-.11-.92"></path></g><g style="opacity:0.30000000000000004"><path d="M328.55,335.16a26,26,0,0,1,14.6,17.72c.24,1,.54,2.25,1.54,2.62a2.06,2.06,0,0,0,2.47-1.6,5.16,5.16,0,0,0-.52-3.23A29.59,29.59,0,0,0,323,332.89"></path></g><path d="M228.71,339.83l.24,0,.72-.06,2.82-.2,10.7-.71,38.19-2.4-.21.24c-.84-15.47-1.85-33.74-2.92-53.25,0-.3,0-.59,0-.88l.26.25a493.13,493.13,0,0,0-63.4,5.58l.17-.24c2.25,12.46,4.09,22.67,5.38,29.78.63,3.53,1.11,6.3,1.45,8.2.16.93.28,1.64.36,2.15s.11.73.11.73-.07-.24-.17-.72l-.42-2.14c-.36-1.9-.89-4.65-1.56-8.18-1.33-7.1-3.23-17.3-5.56-29.75l0-.21.21,0a479.72,479.72,0,0,1,63.46-5.69h.25l0,.25c0,.29,0,.59,0,.88,1.05,19.51,2,37.78,2.85,53.25v.23h-.22l-38.2,2.21-10.71.59-2.82.13-.72,0Z" style="fill:#fff"></path><path d="M235.31,334.51a9.84,9.84,0,0,1-.62-1.67c-.36-1.08-.85-2.67-1.43-4.63-1.16-3.92-2.61-9.39-3.94-15.5S227.06,301,226.49,297c-.29-2-.5-3.67-.61-4.81a13.47,13.47,0,0,1-.14-1.78,10.49,10.49,0,0,1,.34,1.75c.19,1.21.46,2.83.77,4.78.67,4,1.66,9.59,3,15.68s2.72,11.57,3.78,15.51c.52,1.91.95,3.49,1.28,4.67A13.26,13.26,0,0,1,235.31,334.51Z" style="fill:#fff"></path><path d="M243.1,335.93a2.58,2.58,0,0,1-.08-.47l-.15-1.34c-.11-1.25-.27-2.92-.46-4.94-.38-4.17-.94-9.93-1.65-16.28s-1.46-12.09-2-16.25c-.27-2-.49-3.67-.65-4.91-.06-.54-.12-1-.16-1.34a1.61,1.61,0,0,1,0-.48,1.59,1.59,0,0,1,.12.46c.07.36.16.8.26,1.32.21,1.16.49,2.83.81,4.9.65,4.14,1.46,9.88,2.17,16.24s1.22,12.13,1.51,16.31c.15,2.09.25,3.79.3,5,0,.53,0,1,0,1.35A1.31,1.31,0,0,1,243.1,335.93Z" style="fill:#fff"></path><path d="M256.56,340.58a1.84,1.84,0,0,1-.12-.53c-.06-.42-.14-.93-.24-1.56-.21-1.42-.51-3.35-.86-5.7-.74-4.82-1.89-11.45-3.47-18.72s-3.28-13.78-4.6-18.47c-.65-2.29-1.19-4.17-1.58-5.55-.18-.61-.32-1.11-.43-1.52a1.93,1.93,0,0,1-.11-.53,2.46,2.46,0,0,1,.21.5l.52,1.49c.44,1.29,1,3.17,1.75,5.5,1.41,4.68,3.17,11.19,4.75,18.47s2.67,13.94,3.33,18.77c.32,2.42.56,4.38.69,5.74l.14,1.56A2.08,2.08,0,0,1,256.56,340.58Z" style="fill:#fff"></path><path d="M267.6,337.83a2.11,2.11,0,0,1-.16-.48c-.1-.38-.21-.85-.36-1.41-.31-1.3-.72-3-1.23-5.17-1-4.37-2.39-10.43-3.87-17.12-2.58-11.64-4.65-21.38-5.05-23.72l.1,0c-.25.28-.38.42-.4.4a2.73,2.73,0,0,1,.32-.47l.06-.08,0,.11c.63,2.29,2.87,12,5.45,23.63,1.48,6.69,2.79,12.76,3.72,17.15l1.07,5.21c.1.57.19,1,.26,1.42A1.63,1.63,0,0,1,267.6,337.83Z" style="fill:#fff"></path><path d="M274,335c-.14,0-1.27-10.58-2.53-23.67s-2.15-23.7-2-23.71,1.27,10.58,2.52,23.66S274.14,335,274,335Z" style="fill:#fff"></path><path d="M243.83,328.46a6.33,6.33,0,0,1,8.47-8.33c2.48,1.18,3.92,3.81,4.8,6.4a27.91,27.91,0,0,1,1.27,12.53,8.61,8.61,0,0,1-2.22,5.34" style="fill:#eb996e"></path><path d="M163.56,335.48,154.05,350s-1.62,17.58,11.12,18.55,16.7-7.74,16.7-7.74V344.67Z" style="fill:#ffbe9d"></path><path d="M223.94,317.94c-1.16-2.29-4-3.35-6.54-3.13a17.32,17.32,0,0,0-7.11,2.76c-2.21,1.3-4.93,4.6-7.42,5.22l15.18,4.67c1.88-.87,4.28-1.86,5.38-3.61A6.16,6.16,0,0,0,223.94,317.94Z" style="fill:#ffbe9d"></path><path d="M185.15,334.57s-1.39,11.31,2.93,12.81,10.15-1.17,10.15-1.17l33.05,5.84s6.05,6.64,14.2,7,13.11-9.4,13.11-9.4l.9-17.45L237,329.69s-26-5.44-28.11-6.1-14.37-4.49-16.71-4.61-5.16,6-5.16,6Z" style="fill:#263238"></path><path d="M240,330.81a12,12,0,0,0-4.35.24,3.63,3.63,0,0,0-1.15,6.72,11.86,11.86,0,0,0,5,1.7l7.81,1.41a9.9,9.9,0,0,0,3,.23,3.34,3.34,0,0,0,2.51-1.51,2,2,0,0,0-.55-2.69" style="fill:#455a64"></path><path d="M270.15,335.65l42.45.93s17.29,9.2,15.57,21.22-17.36,14.3-17.36,14.3l-42.19-11Z" style="fill:#ffbe9d"></path><path d="M200.93,320.76c-1.66-.4-3.25-.79-5-1.06s-3.91.34-4.4,2a4,4,0,0,0,1,3.37c3.08,4.11,8.47,5.85,13.6,6.12a7.63,7.63,0,0,0,3.91-.56,3.07,3.07,0,0,0,1.77-3.25A4.51,4.51,0,0,0,209.6,325a30.7,30.7,0,0,0-8.67-4.23" style="fill:#455a64"></path><path d="M271.85,346.41c1.55-2.78-2.28-6.89-2.28-6.89a15.25,15.25,0,0,0,1.74-5.39c.31-2.94-4.86-5.48-4.86-5.48l-9.89-2.17s-13,1.08-15.13,3.25,0,5,0,5l.46.84c.87,1.5,10.47.46,10.47.46s4.76.88,5.21,1.3,2.38,3.72-.39,4.57c-.66.2-17.72,2-20.65,2.19s-4.34,1.35-4.36,5c0,2.33,4,3.52,4.68,3.71-.58-.15-3.56-.79-4.53,1.7-1.08,2.76,4.32,4.63,4.32,4.63a1.25,1.25,0,0,1,.93,1.86c-1.59,4.25,5.25,5.48,5.25,5.48l15-.52s6.64,1.55,10-.71,1.39-7.17,3.86-10.74S270.31,349.19,271.85,346.41Z" style="fill:#ffbe9d"></path><path d="M262,348.92a3.58,3.58,0,0,1-1,.3c-.63.16-1.56.37-2.7.61-2.28.47-5.46,1.07-9,1.61s-6.73.93-9,1.16c-1.16.12-2.1.2-2.75.24a4.19,4.19,0,0,1-1,0,3.47,3.47,0,0,1,1-.21l2.74-.4c2.31-.33,5.5-.78,9-1.32s6.69-1.07,9-1.46L261,349A4.75,4.75,0,0,1,262,348.92Z" style="fill:#eb996e"></path><path d="M264.44,356.91a4.64,4.64,0,0,1-1,.37c-.64.21-1.57.48-2.72.77a64.7,64.7,0,0,1-9.2,1.62,63.89,63.89,0,0,1-9.32.3c-1.2-.05-2.16-.12-2.83-.2a3.52,3.52,0,0,1-1-.17c0-.08,1.48,0,3.85,0a84.73,84.73,0,0,0,18.43-1.91C263,357.2,264.41,356.83,264.44,356.91Z" style="fill:#eb996e"></path><path d="M269.88,331s.22.1.53.43a4,4,0,0,1,.9,1.71,6,6,0,0,1,0,3,16.45,16.45,0,0,1-1.49,3.52l-.07-.29a6.61,6.61,0,0,1,2.34,6.88,6.42,6.42,0,0,1-1.12,2.32l-.11-.4a3.45,3.45,0,0,1,2,2.34,5.27,5.27,0,0,1,0,2.79,28.86,28.86,0,0,1-1.85,4.15,8.06,8.06,0,0,0-.82,2.82c-.06.7,0,1.08,0,1.08s-.05-.08-.1-.27a4.53,4.53,0,0,1-.08-.81,7.59,7.59,0,0,1,.7-2.95,34.2,34.2,0,0,0,1.72-4.13,4.76,4.76,0,0,0,0-2.54,2.93,2.93,0,0,0-1.66-2l-.32-.12.2-.27a6.25,6.25,0,0,0,1-2.14,6.15,6.15,0,0,0-.18-3.66,6.3,6.3,0,0,0-1.94-2.72l-.16-.13.09-.17a16.55,16.55,0,0,0,1.53-3.4,5.94,5.94,0,0,0,.15-2.83A4.85,4.85,0,0,0,269.88,331Z" style="fill:#eb996e"></path><path d="M248.08,342.8a2.46,2.46,0,0,1-.54.14l-1.55.32c-.67.14-1.5.29-2.47.4s-2.07.3-3.3.38-2.57.21-4,.22-3,0-4.63,0A77.24,77.24,0,0,1,221.05,343a75.92,75.92,0,0,1-10.21-2.81c-1.52-.58-3-1.11-4.3-1.72s-2.54-1.16-3.64-1.72-2.06-1.11-2.91-1.59-1.57-.92-2.15-1.3l-1.32-.88a2.77,2.77,0,0,1-.44-.33,2,2,0,0,1,.5.25l1.37.78c.59.36,1.31.78,2.18,1.23s1.82,1,2.94,1.51,2.31,1.12,3.64,1.65,2.77,1.1,4.29,1.66a72.4,72.4,0,0,0,20.59,4c1.62.05,3.16.12,4.6.07s2.78-.08,4-.16,2.32-.2,3.29-.3,1.8-.21,2.48-.31l1.56-.22A1.83,1.83,0,0,1,248.08,342.8Z" style="fill:#455a64"></path><path d="M160.35,348.6s-2.39-6.16-1.39-7.74,5-5,5-5-1.39-5,1.59-6.15l3-1.19s-.55-5.56,2.6-7.35a14.32,14.32,0,0,1,7.32-1.39s6.1-10.78,9.53-9.92S204.82,317,205,321.2s-1.46,4.53-3.94,4.2c-1.68-.22-10.56-3.21-10.56-3.21L185,327.13l3.39,3.2s9.73,5,6.75,8.94-6.75,1.59-9.93.2-8.34-6.36-8.34-6.36l6.36,9.33s13.6,5.63,13.67,9.93a4.73,4.73,0,0,1-3.94,4.77s2.1,3.73-1.43,4.54-11.28,0-11.28,0l-9.06-3.95Z" style="fill:#ffbe9d"></path><path d="M186.16,362a6.34,6.34,0,0,1-1.34,0c-.86,0-2.1-.1-3.63-.26a66,66,0,0,1-11.78-2.37,6.26,6.26,0,0,1-3-1.76,17.42,17.42,0,0,1-1.78-2.7l-2.7-4.66-1.79-3.17a6.35,6.35,0,0,1-.59-1.2,8,8,0,0,1,.77,1.1l1.92,3.08,2.81,4.61a17.34,17.34,0,0,0,1.74,2.6,5.89,5.89,0,0,0,2.81,1.6,77.45,77.45,0,0,0,11.67,2.5c1.52.21,2.75.34,3.61.43A7,7,0,0,1,186.16,362Z" style="fill:#eb996e"></path><path d="M192.77,357.8a5.78,5.78,0,0,1-1.15-.11,24.28,24.28,0,0,1-3.07-.64,34.16,34.16,0,0,1-4.41-1.54,33.53,33.53,0,0,1-9.53-6.26,31.43,31.43,0,0,1-3.16-3.43,23.91,23.91,0,0,1-1.82-2.56,5.34,5.34,0,0,1-.55-1c.08-.06.95,1.33,2.65,3.34a37.09,37.09,0,0,0,3.21,3.31,36.4,36.4,0,0,0,9.4,6.17,35.87,35.87,0,0,0,4.31,1.62C191.17,357.46,192.79,357.7,192.77,357.8Z" style="fill:#eb996e"></path><path d="M276.1,204.3c1.39-1.69,4.32-1.41,5.74.24a5.89,5.89,0,0,1,.58,6.16,12.58,12.58,0,0,1-4.35,4.79,28.92,28.92,0,0,1-4.22,2.5,5,5,0,0,1-2.56.67c-1.9-.16-3.1-2.35-2.85-4.24a8.88,8.88,0,0,1,2.87-4.82,18.1,18.1,0,0,0,3.68-4.34" style="fill:#F26840"></path><path d="M211.29,197.21l-11.87-4.93a11.06,11.06,0,0,1-6.81-10.11l-.11-11.58L202,161.1l23,8.29L222.63,185S215.88,196.43,211.29,197.21Z" style="fill:#F26840"></path><path d="M253.15,127.41c-1.31-4.5-7.18-9.49-12.13-10.72a16.06,16.06,0,0,0-14.2,3.4c-3.79,3.4-5.28,8.39-8.53,12.23-6.25,7.38-18.07,9.51-24,17.08-5.42,6.88-4.38,16.69.31,24,2.05,3.18,4.79,6.27,5,10,.12,2.23-.73,4.41-.74,6.64,0,5.11,5.06,9.8,10.69,9.83" style="fill:#263238"></path><path d="M250.52,125.59c1.58-4.14,9.29-4.35,13.24-2.34s6.43,6,8.71,9.79q5.16,8.55,10.3,17.11c2.64,4.38,5.29,8.81,6.94,13.65s2.22,10.2.64,15.07c-1.72,5.29-5.84,9.6-7.3,15-1,3.6-.7,7.44-1.71,11s-5.57,10.29-12.22,10.27" style="fill:#263238"></path><path d="M272.3,160.54l-1.05,67a22.39,22.39,0,0,1-22.68,22h0A22.38,22.38,0,0,1,226.48,228l-.31-8.9s-17.48-1.87-18.51-19.21c-.5-8.36-.13-25.63.39-41.28a32.5,32.5,0,0,1,32.49-31.42h0A32.14,32.14,0,0,1,272.3,160.54Z" style="fill:#ffbe9d"></path><path d="M226.15,219.12a40.39,40.39,0,0,0,22.31-7.5s-4.75,12.74-22.14,12Z" style="fill:#eb996e"></path><path d="M214.83,170.58a2.48,2.48,0,0,0,2.51,2.38,2.36,2.36,0,0,0,2.44-2.35,2.47,2.47,0,0,0-2.5-2.39A2.37,2.37,0,0,0,214.83,170.58Z" style="fill:#263238"></path><path d="M212.21,167.09c.32.31,2.13-1.17,4.8-1.29s4.68,1.12,5,.78c.14-.15-.2-.72-1.08-1.3a6.85,6.85,0,0,0-4-1,6.5,6.5,0,0,0-3.8,1.43C212.3,166.36,212.05,167,212.21,167.09Z" style="fill:#263238"></path><path d="M240.87,170.58a2.48,2.48,0,0,0,2.51,2.38,2.37,2.37,0,0,0,2.45-2.35,2.49,2.49,0,0,0-2.51-2.39A2.38,2.38,0,0,0,240.87,170.58Z" style="fill:#263238"></path><path d="M238.43,166.35c.32.31,2.14-1.17,4.8-1.29s4.68,1.12,5,.78c.13-.15-.21-.72-1.09-1.3a6.77,6.77,0,0,0-4-1,6.46,6.46,0,0,0-3.8,1.43C238.53,165.61,238.27,166.21,238.43,166.35Z" style="fill:#263238"></path><path d="M229.69,186.57c0-.15-1.66-.36-4.36-.57-.69,0-1.34-.15-1.48-.6a3.51,3.51,0,0,1,.36-2c.57-1.68,1.15-3.44,1.77-5.28,2.45-7.51,4.18-13.68,3.88-13.77s-2.53,5.91-5,13.42c-.58,1.85-1.15,3.62-1.68,5.31a4,4,0,0,0-.23,2.69,1.73,1.73,0,0,0,1.17.94,5.06,5.06,0,0,0,1.16.11C228,186.79,229.69,186.73,229.69,186.57Z" style="fill:#263238"></path><path d="M239,155c.31.71,2.95.21,6.1.41s5.72.9,6.1.23c.16-.32-.31-1-1.37-1.62a10.59,10.59,0,0,0-9.29-.49C239.44,154.1,238.89,154.7,239,155Z" style="fill:#263238"></path><path d="M211.71,155.72c.5.58,2.31-.13,4.52-.27s4.09.22,4.49-.44c.18-.31-.15-.9-1-1.44a6.33,6.33,0,0,0-3.72-.82,6.23,6.23,0,0,0-3.54,1.39C211.72,154.8,211.49,155.44,211.71,155.72Z" style="fill:#263238"></path><path d="M269.58,174.29c-2.63,5.91-8.54,6.55-8.61-1.15,0-3.65.86-7.42-.31-10.87-1.74-5.13-7.28-7.72-11.27-11.38A23.19,23.19,0,0,1,242.24,131c.32-2.35,1.18-4.86,3.23-6,1.81-1,4.07-.78,6.1-.27,12.38,3.12,21.78,14.33,24.68,26.77s2.32,29.11-3.72,40.36" style="fill:#263238"></path><path d="M245.13,125.14a30.46,30.46,0,0,1-19.77,19c-2.74.82-5.6,1.25-8.3,2.22s-5.3,2.61-6.62,5.15c-.55,1.06-1.53,3.92-2.26,4.86s-1.44-.1-2.46-.71c-1.25-.74-1.08-2.6-.58-4,1.61-4.45,4.82-8.09,8.06-11.53,4.17-4.44,8.57-8.8,13.93-11.7s11.83-4.24,17.6-2.31" style="fill:#263238"></path><path d="M227.31,195.22c-.22-.68,1.9-2,4.72-2.84s5.29-1,5.51-.35-1.91,2-4.73,2.84S227.52,195.91,227.31,195.22Z" style="fill:#263238"></path><path d="M237.62,173c.08-.05.5.61,1.45,1.37a7.59,7.59,0,0,0,4.31,1.7,7.71,7.71,0,0,0,4.47-1.2c1-.65,1.52-1.26,1.59-1.2s-.35.73-1.38,1.5a7.19,7.19,0,0,1-9.23-.52A4,4,0,0,1,237.62,173Z" style="fill:#eb996e"></path><path d="M211.3,173.35c.06-.06.49.39,1.34.89a6.69,6.69,0,0,0,7.18-.21c.81-.54,1.22-1,1.29-1s-.27.6-1.08,1.26a6.33,6.33,0,0,1-7.59.21C211.6,173.94,211.25,173.38,211.3,173.35Z" style="fill:#eb996e"></path><path d="M239.78,176.81a8.18,8.18,0,0,1,1.47.38,9.53,9.53,0,0,0,6.94-1,10.65,10.65,0,0,1,1.31-.78c.05,0-.32.53-1.11,1.09a8.3,8.3,0,0,1-7.24,1A3.08,3.08,0,0,1,239.78,176.81Z" style="fill:#eb996e"></path><path d="M212.22,176.61a16,16,0,0,0,3.33.35,16.39,16.39,0,0,0,3.23-.86,5.36,5.36,0,0,1-6.56.51Z" style="fill:#eb996e"></path><path d="M252.85,106.18c.06.07-.83.76-1.83,2.21a11.71,11.71,0,0,0-2.09,6.42,18.86,18.86,0,0,0,1.43,6.7,20,20,0,0,1,1,2.73,13.06,13.06,0,0,1-1.31-2.59,17,17,0,0,1-1.61-6.85,11.26,11.26,0,0,1,2.31-6.63,9.81,9.81,0,0,1,1.48-1.55A2.17,2.17,0,0,1,252.85,106.18Z" style="fill:#263238"></path><path d="M221.45,106.85a1.78,1.78,0,0,1,.58-.06,7.6,7.6,0,0,1,1.69.18,6.72,6.72,0,0,1,2.47,1.08,5.49,5.49,0,0,1,2.08,2.9,4.32,4.32,0,0,1-.87,4.19,4.09,4.09,0,0,1-2.12,1.29,3.22,3.22,0,0,1-2.59-.49,3.55,3.55,0,0,1-1.53-2.31,3.11,3.11,0,0,1,1-2.72c1.49-1.4,3.57-1.76,5.54-2a19.89,19.89,0,0,1,11,2.32,24,24,0,0,1,7.08,5.88,28.51,28.51,0,0,1,3.41,5.19c.33.66.57,1.17.71,1.53a2.32,2.32,0,0,1,.2.55,3.44,3.44,0,0,1-.29-.51c-.18-.34-.45-.84-.8-1.47a31.23,31.23,0,0,0-3.51-5,23.8,23.8,0,0,0-7-5.69,19.63,19.63,0,0,0-10.72-2.23c-1.92.2-3.93.59-5.23,1.82a2.58,2.58,0,0,0-.85,2.28,3.09,3.09,0,0,0,1.31,2,2.77,2.77,0,0,0,2.22.43,3.7,3.7,0,0,0,1.9-1.13,3.92,3.92,0,0,0,.83-3.8,5.26,5.26,0,0,0-1.89-2.77,6.83,6.83,0,0,0-2.35-1.12A14,14,0,0,0,221.45,106.85Z" style="fill:#263238"></path><path d="M192.69,144.78a2.3,2.3,0,0,1,.53-.88,3.7,3.7,0,0,1,2.71-1.13,3.57,3.57,0,0,1,2.07.63,3.76,3.76,0,0,1,1.44,2.14,4.68,4.68,0,0,1-.2,3,4.43,4.43,0,0,1-2.35,2.33,5.59,5.59,0,0,1-3.65.3,6.08,6.08,0,0,1-3.26-2.24,7.37,7.37,0,0,1-1.5-4,9.65,9.65,0,0,1,.75-4.43,12.22,12.22,0,0,1,6.81-6.55,12.07,12.07,0,0,1,5-.81,40.48,40.48,0,0,1,5.13.9,10.73,10.73,0,0,0,5,.1,7.67,7.67,0,0,0,3.91-2.78c2-2.53,3.26-5.58,5.44-7.79a19.82,19.82,0,0,1,7.14-4.85,18.79,18.79,0,0,1,7.41-1.33,19.48,19.48,0,0,1,10.28,3.29,14.24,14.24,0,0,1,3,2.59s-.08-.05-.21-.16l-.57-.51a20.72,20.72,0,0,0-2.35-1.76,19.71,19.71,0,0,0-10.18-3.08,18.73,18.73,0,0,0-7.24,1.36,19.33,19.33,0,0,0-7,4.78,21.81,21.81,0,0,0-2.72,3.7,34.87,34.87,0,0,1-2.68,4.08,8.12,8.12,0,0,1-4.16,3,11.32,11.32,0,0,1-5.24-.09,41.14,41.14,0,0,0-5.06-.9,11.53,11.53,0,0,0-4.82.78,11.76,11.76,0,0,0-6.56,6.25,9.3,9.3,0,0,0-.74,4.21,7,7,0,0,0,1.39,3.75,5.74,5.74,0,0,0,3,2.11,5.15,5.15,0,0,0,3.39-.25,4.12,4.12,0,0,0,2.2-2.12,4.42,4.42,0,0,0,.22-2.76,3.54,3.54,0,0,0-1.3-2,3.39,3.39,0,0,0-1.93-.62,3.6,3.6,0,0,0-2.63,1A5.15,5.15,0,0,0,192.69,144.78Z" style="fill:#263238"></path><path d="M268.31,131.46a5.27,5.27,0,0,1-.21-1.12c-.1-.84-.23-1.86-.37-3.07s-.32-2.87-.5-4.55a5.52,5.52,0,0,0-.78-2.44,3.43,3.43,0,0,0-2.3-1.28,12,12,0,0,0-5.41.52,13.62,13.62,0,0,0-4,2.09,21.17,21.17,0,0,0-2.94,3,4,4,0,0,1,.58-1,11.33,11.33,0,0,1,2.13-2.27,13.13,13.13,0,0,1,4-2.25,12.09,12.09,0,0,1,5.66-.58,3.86,3.86,0,0,1,2.63,1.5,6,6,0,0,1,.84,2.67c.14,1.69.27,3.23.38,4.58s.16,2.24.21,3.08A4.55,4.55,0,0,1,268.31,131.46Z" style="fill:#263238"></path><path d="M299.46,155.76s-.06.25-.29.65a6.94,6.94,0,0,1-1.23,1.51,7.9,7.9,0,0,1-11.57-.67,6.74,6.74,0,0,1-1-1.63c-.19-.42-.25-.67-.22-.68a22,22,0,0,0,1.54,2.07,7.88,7.88,0,0,0,11.05.63A18.8,18.8,0,0,0,299.46,155.76Z" style="fill:#263238"></path><path d="M235.33,215.87a8.74,8.74,0,0,1-2.42.69,25.59,25.59,0,0,1-6,.39,25,25,0,0,1-6-1,8.23,8.23,0,0,1-2.32-.93,48.58,48.58,0,0,0,8.32,1.44A48.68,48.68,0,0,0,235.33,215.87Z" style="fill:#fff"></path><path d="M229.79,187.59a9.49,9.49,0,0,1-3,.23,9.36,9.36,0,0,1-3-.29,18,18,0,0,1,6.09.06Z" style="fill:#fff"></path><path d="M234.36,195.05a7.66,7.66,0,0,1-2.6,1,7.52,7.52,0,0,1-2.73.51,14.84,14.84,0,0,1,5.33-1.52Z" style="fill:#fff"></path><path d="M245.77,173.53a3.27,3.27,0,0,1-2.84.56,3.31,3.31,0,0,1-2.49-1.49,13.82,13.82,0,0,0,2.58,1A13.3,13.3,0,0,0,245.77,173.53Z" style="fill:#fff"></path><path d="M218.94,173c.07.11-.74.65-1.9.65s-2-.53-1.91-.64.88.13,1.9.12S218.87,172.83,218.94,173Z" style="fill:#fff"></path><path d="M219.89,156.43c0,.16-1.82-.18-4,.18s-3.78,1.2-3.85,1.06a8.59,8.59,0,0,1,7.84-1.24Z" style="fill:#fff"></path><path d="M251.14,157.47c-.06.15-2.16-.73-4.91-1s-5,.1-5-.06a13,13,0,0,1,9.93,1.07Z" style="fill:#fff"></path><path d="M243.56,129.11a2.25,2.25,0,0,1-.28.48c-.21.31-.49.77-.92,1.32a31.61,31.61,0,0,1-4,4.37,35.24,35.24,0,0,1-7.13,5.09,34.83,34.83,0,0,1-4.73,2.12A41.94,41.94,0,0,1,221.2,144a37.79,37.79,0,0,0-5.31,1.39,11.31,11.31,0,0,0-4.24,2.66,14.62,14.62,0,0,0-3.62,7.65,37.85,37.85,0,0,0-.47,5.82c0,.65,0,1.18,0,1.6a1.74,1.74,0,0,1,0,.56,2.73,2.73,0,0,1-.06-.56c0-.36-.05-.9-.07-1.59a32.45,32.45,0,0,1,.31-5.9,14.77,14.77,0,0,1,3.64-7.92,11.78,11.78,0,0,1,4.4-2.8,38.22,38.22,0,0,1,5.38-1.42A35.9,35.9,0,0,0,238.16,135a34.81,34.81,0,0,0,4-4.23C243.08,129.71,243.52,129.08,243.56,129.11Z" style="fill:#fff"></path><path d="M200.91,192.73a13.38,13.38,0,0,0,1-3.85,22.6,22.6,0,0,0-2.08-10.58c-.86-2.14-1.93-4.44-2.81-7a25.07,25.07,0,0,1-1-4.12,18.82,18.82,0,0,1-.09-4.51,19.76,19.76,0,0,1,3.31-9,18.71,18.71,0,0,1,3.44-3.8,26.75,26.75,0,0,1,4.42-2.86c3.14-1.66,6.37-2.89,9.26-4.5a16.13,16.13,0,0,0,6.79-6.37c1.4-2.68,2-5.58,3-8.1a13.22,13.22,0,0,1,2-3.41,10.5,10.5,0,0,1,2.87-2.3,10.29,10.29,0,0,1,6.12-1.24,10.49,10.49,0,0,1,4.45,1.59,9.79,9.79,0,0,1,2.25,2,5.14,5.14,0,0,1,.61.85,11.8,11.8,0,0,0-3-2.64,10.32,10.32,0,0,0-4.37-1.47,10.23,10.23,0,0,0-8.65,3.51,12.82,12.82,0,0,0-2,3.32c-1.06,2.47-1.59,5.38-3,8.15a16.79,16.79,0,0,1-7,6.6c-2.93,1.63-6.16,2.87-9.27,4.51a27,27,0,0,0-4.33,2.8,18.26,18.26,0,0,0-3.35,3.69,19.23,19.23,0,0,0-3.25,8.79,18.36,18.36,0,0,0,.06,4.39,24.46,24.46,0,0,0,1,4c.85,2.57,1.9,4.88,2.74,7,1.76,4.29,2.3,8.14,1.94,10.73a11.05,11.05,0,0,1-.74,2.89,7.55,7.55,0,0,1-.33.71A2,2,0,0,1,200.91,192.73Z" style="fill:#455a64"></path><path d="M267.53,158.22a7.44,7.44,0,0,1-1.36-.53,25.22,25.22,0,0,1-3.48-1.93,27.93,27.93,0,0,1-12.52-22.11,26.64,26.64,0,0,1,.13-4,7.21,7.21,0,0,1,.26-1.44,9.45,9.45,0,0,1-.05,1.46,30.89,30.89,0,0,0,0,3.94,28.82,28.82,0,0,0,12.36,21.83,30.21,30.21,0,0,0,3.36,2A9,9,0,0,1,267.53,158.22Z" style="fill:#455a64"></path><path d="M268.43,139.84s-.25.07-.7.1a10.24,10.24,0,0,1-1.91-.07,14.81,14.81,0,0,1-10.47-6.44,10.73,10.73,0,0,1-.92-1.68,2,2,0,0,1-.22-.66c.08,0,.5.86,1.44,2.13a16.28,16.28,0,0,0,10.23,6.29C267.43,139.78,268.42,139.75,268.43,139.84Z" style="fill:#455a64"></path><path d="M268.61,174.58c.29-.14,11.75-4.09,11.94,7.79s-11.78,9.61-11.81,9.27S268.61,174.58,268.61,174.58Z" style="fill:#ffbe9d"></path><path d="M272.3,187.08c.05,0,.21.14.56.3a2.09,2.09,0,0,0,1.55,0c1.25-.48,2.27-2.49,2.3-4.63a6.88,6.88,0,0,0-.63-3,2.36,2.36,0,0,0-1.58-1.56,1,1,0,0,0-1.21.59c-.15.33-.08.57-.14.59s-.26-.2-.17-.69a1.31,1.31,0,0,1,.46-.75,1.55,1.55,0,0,1,1.14-.32,2.93,2.93,0,0,1,2.19,1.81,7,7,0,0,1,.76,3.3c0,2.39-1.23,4.65-2.93,5.17a2.23,2.23,0,0,1-1.9-.28C272.33,187.37,272.26,187.1,272.3,187.08Z" style="fill:#eb996e"></path><circle cx="271.41" cy="178.95" r="18.26" transform="translate(-47.04 244.33) rotate(-45)" style="fill:#455a64"></circle><path d="M277.94,197.21l-18.61-7.74-.18-18.88,9.46-9.49,23,8.29L289.28,185S282.53,196.43,277.94,197.21Z" style="fill:#F26840"></path><path d="M284.67,173.07s1-23.62-3.13-32.89-13.06-13-13.06-13h0a33,33,0,0,1,5.68,17.48l.75,23.93-5.31,9.13,7.93,5.07Z" style="fill:#F26840"></path><polygon points="274.21 146.16 283.61 148.23 284.11 152.14 274.35 150.87 274.21 146.16" style="fill:#e0e0e0"></polygon><polygon points="284.11 158.89 291.62 169.4 278.71 170.59 268.61 161.1 275.63 156.72 284.11 158.89" style="fill:#F26840"></polygon><path d="M284.51,158.48s0,.13.06.38.05.63.07,1.12c.05,1,.06,2.39,0,4.16a89.28,89.28,0,0,1-1.41,14l-.05.27-.27-.08-4.2-1.21-6-1.73-.2-.06,0-.21c.45-5.09.84-9.51,1.13-12.77.15-1.52.28-2.77.38-3.71a7.49,7.49,0,0,1,.19-1.34,8.2,8.2,0,0,1,0,1.35c-.06,1-.14,2.2-.23,3.73-.24,3.25-.57,7.69-.95,12.79l-.18-.27,5.95,1.72,4.2,1.22-.32.2a104.38,104.38,0,0,0,1.58-13.94c.08-1.75.12-3.17.13-4.14A11,11,0,0,1,284.51,158.48Z" style="fill:#263238"></path><path d="M272.85,159.65a6.53,6.53,0,0,1-.69.85l-2,2.29c-1.81,2-4.3,4.75-7.22,8l.06-.16c0,3.13,0,6.6,0,10.26v5.93l-.15-.23,12.4,6,3.6,1.78a8.24,8.24,0,0,1,1.27.7,8.48,8.48,0,0,1-1.34-.54l-3.67-1.65L262.63,187l-.15-.07v-.16c0-1.89,0-3.88,0-5.93,0-3.66,0-7.13,0-10.26v-.09l.06-.07,7.36-7.83,2.13-2.2A5.25,5.25,0,0,1,272.85,159.65Z" style="fill:#263238"></path><polygon points="274.91 186.79 248.22 202.68 246.77 205.42 239 208.25 235.49 206.11 236.08 202.38 242.79 198.52 245.83 198.89 270.9 182.2 274.91 186.79" style="fill:#F26840"></polygon><path d="M263,194.05a29.44,29.44,0,0,1,4.48-3.2,29,29,0,0,1,4.77-2.76,30.28,30.28,0,0,1-4.48,3.2A30,30,0,0,1,263,194.05Z" style="fill:#263238"></path><path d="M269.08,183.11c0-.06.37-.31,1.11-.37a3.63,3.63,0,0,1,2.69.93,3.69,3.69,0,0,1,1.17,2.59c0,.74-.22,1.16-.27,1.14s0-.45-.1-1.11a3.88,3.88,0,0,0-1.15-2.24,3.81,3.81,0,0,0-2.33-.94C269.53,183.07,269.11,183.19,269.08,183.11Z" style="fill:#263238"></path><path d="M262.14,188.23a28.48,28.48,0,0,1,3.59-2.7,27.43,27.43,0,0,1,3.72-2.53,24.54,24.54,0,0,1-7.31,5.23Z" style="fill:#263238"></path><path d="M280.6,181.51a1.56,1.56,0,0,1,1.92-.27l0,0a1.56,1.56,0,0,1,.73.94,1.53,1.53,0,0,1-2.71,1.28A1.56,1.56,0,0,1,280.6,181.51Z" style="fill:#fff"></path><path d="M276.1,180a1.59,1.59,0,0,1,1.92-.27h0a1.53,1.53,0,0,1,.73.94,1.53,1.53,0,1,1-2.6-.66Z" style="fill:#fff"></path><path d="M279.65,194.69c-.07-.07,1-1.21,2.54-3.24a39.27,39.27,0,0,0,7.39-18.13c.34-2.51.35-4.09.44-4.09a4.29,4.29,0,0,1,.07,1.11,24.65,24.65,0,0,1-.15,3,35.25,35.25,0,0,1-7.46,18.3,25,25,0,0,1-2,2.27A4.53,4.53,0,0,1,279.65,194.69Z" style="fill:#fff"></path><path d="M283.09,152.83a3,3,0,0,1,.18.91c.09.58.18,1.43.27,2.49a81.57,81.57,0,0,1,.27,8.26,82.55,82.55,0,0,1-.54,8.25c-.13,1-.25,1.9-.36,2.48a3,3,0,0,1-.21.9,28.59,28.59,0,0,1,.2-3.41c.16-2.11.34-5,.39-8.23s0-6.12-.11-8.23A26.81,26.81,0,0,1,283.09,152.83Z" style="fill:#fff"></path><path d="M277.69,135.13a21.26,21.26,0,0,1,2.82,5.33,20.94,20.94,0,0,1,1.68,5.78c-.15,0-.92-2.53-2.16-5.59S277.55,135.21,277.69,135.13Z" style="fill:#fff"></path><path d="M248.12,202.22a4.65,4.65,0,0,1,.91-.6l2.54-1.5c2.15-1.26,5.11-3,8.32-5.07s6.06-4,8.11-5.39l2.44-1.67a4.28,4.28,0,0,1,.93-.56,4.38,4.38,0,0,1-.81.73c-.54.44-1.34,1.06-2.34,1.8-2,1.5-4.83,3.48-8.05,5.53s-6.22,3.77-8.42,4.95c-1.1.59-2,1.05-2.63,1.36A4.47,4.47,0,0,1,248.12,202.22Z" style="fill:#fff"></path></g><g id="freepik--Clock--inject-2"><polygon points="311.64 111.54 309.36 111.54 310.5 109.57 311.64 107.6 312.77 109.57 313.91 111.54 311.64 111.54" style="fill:#263238"></polygon><circle cx="371.79" cy="111.64" r="51.45" transform="matrix(0.16, -0.99, 0.99, 0.16, 202.93, 461.19)" style="fill:#F26840"></circle><circle cx="372.33" cy="111.13" r="46.56" style="fill:#F26840"></circle><circle cx="372.04" cy="111.4" r="46.84" transform="translate(30.19 295.7) rotate(-45)" style="fill:#fafafa"></circle><path d="M325.3,108.33s0,.26,0,.76v2.23c0,.49,0,1,0,1.64s.11,1.26.17,2,.13,1.47.21,2.29a24.2,24.2,0,0,0,.44,2.59,44.41,44.41,0,0,0,4.36,12.75,46.34,46.34,0,0,0,11,14l1.91,1.63c.68.51,1.4,1,2.1,1.49s1.4,1,2.19,1.46l2.34,1.32,1.19.66,1.26.56L355,154.8c.87.35,1.79.6,2.7.92a23.27,23.27,0,0,0,2.77.82,44,44,0,0,0,5.84,1.07c1,.1,2,.26,3,.31l3.09.05c.52,0,1,0,1.56,0l1.57-.14c1-.1,2.1-.16,3.16-.3a50.79,50.79,0,0,0,6.32-1.41l1.58-.47c.26-.08.53-.15.79-.24l.77-.31,3.1-1.25c1-.47,2-1,3-1.54.49-.27,1-.5,1.49-.81l1.44-.94a53.06,53.06,0,0,0,5.57-4.13l2.53-2.45.64-.62.58-.67,1.16-1.35,1.16-1.36,1-1.47,1-1.48.52-.74c.16-.26.3-.52.45-.79l1.8-3.17,1.48-3.36a49.61,49.61,0,0,0,3.37-14.51,49.94,49.94,0,0,0-1.44-14.83c-.34-1.18-.69-2.35-1-3.52l-1.37-3.39-.34-.84-.42-.8-.83-1.6-.84-1.59-1-1.5-1-1.5-.49-.74-.55-.69-2.19-2.76a51.58,51.58,0,0,0-5-4.83l-1.3-1.12c-.43-.37-.92-.66-1.37-1-.94-.64-1.84-1.32-2.79-1.92l-2.91-1.64-.72-.41c-.24-.13-.5-.23-.75-.34l-1.51-.67a49.36,49.36,0,0,0-6.08-2.23c-1-.28-2.07-.47-3.09-.71L380,65.49c-.51-.1-1-.13-1.55-.2l-3.07-.36c-1-.09-2-.05-3-.09a42.92,42.92,0,0,0-5.92.3,22.42,22.42,0,0,0-2.86.45c-.94.19-1.88.32-2.79.56l-2.68.78-1.32.39-1.27.5-2.49,1c-.83.31-1.58.78-2.36,1.16s-1.54.78-2.27,1.2l-2.12,1.37A46.52,46.52,0,0,0,333.59,85a44.73,44.73,0,0,0-6,12.07,25.17,25.17,0,0,0-.77,2.51l-.51,2.25c-.15.7-.32,1.34-.42,1.93s-.15,1.14-.21,1.63c-.12,1-.21,1.7-.28,2.21s-.11.75-.11.75,0-.25.06-.75.13-1.26.23-2.22c.05-.49.11-1,.18-1.64s.25-1.24.4-1.94l.48-2.27c.15-.81.5-1.63.76-2.52a44.25,44.25,0,0,1,5.94-12.17,46.67,46.67,0,0,1,12.74-12.58l2.12-1.38c.75-.43,1.52-.81,2.3-1.22s1.53-.86,2.37-1.18l2.51-1,1.27-.51,1.34-.39,2.7-.8c.92-.24,1.87-.37,2.81-.57a25.21,25.21,0,0,1,2.89-.46,43.62,43.62,0,0,1,6-.31c1,0,2,0,3.07.08l3.1.35c.51.07,1,.1,1.56.2l1.55.35c1,.23,2.09.43,3.13.71a51,51,0,0,1,6.15,2.24l1.52.67.76.34.73.42,2.94,1.66c1,.6,1.87,1.29,2.82,1.93.46.34,1,.64,1.39,1l1.32,1.12a52.54,52.54,0,0,1,5,4.88l2.22,2.78.56.7.49.75,1,1.51,1,1.52.85,1.61.84,1.62.43.81.35.85q.68,1.7,1.38,3.42c.34,1.18.69,2.37,1,3.56a46.65,46.65,0,0,1-1.95,29.66l-1.5,3.4c-.61,1.07-1.22,2.14-1.82,3.21-.15.26-.29.54-.45.8l-.53.74-1.05,1.5-1,1.48-1.17,1.38L406.89,143l-.59.68-.65.62-2.56,2.48a53.12,53.12,0,0,1-5.63,4.17l-1.45.94c-.49.32-1,.55-1.52.82-1,.52-2,1.08-3,1.56l-3.13,1.26-.78.31-.8.24-1.6.47a49.7,49.7,0,0,1-6.39,1.41c-1.06.15-2.13.2-3.19.3l-1.58.14c-.53,0-1.05,0-1.58,0l-3.12,0c-1-.05-2-.22-3-.32a43.43,43.43,0,0,1-5.89-1.09,24.4,24.4,0,0,1-2.8-.84c-.91-.32-1.83-.57-2.71-.93l-2.58-1.14-1.27-.57-1.19-.67-2.36-1.34a25.61,25.61,0,0,1-2.2-1.48c-.71-.51-1.43-1-2.11-1.5l-1.92-1.65a46.55,46.55,0,0,1-11-14.14,44.13,44.13,0,0,1-4.3-12.84,25,25,0,0,1-.42-2.6c-.07-.83-.13-1.6-.19-2.31s-.12-1.38-.14-2,0-1.16,0-1.65c0-1,0-1.71.06-2.23S325.3,108.33,325.3,108.33Z" style="fill:#263238"></path><path d="M393.54,112.4a8.63,8.63,0,0,1-1.65.11l-4.56.09c-3.86.06-9.24.1-15.32.1h-.3v-3.33c0-6.79,0-12.93.09-17.38,0-2.14.07-3.91.1-5.26A11.78,11.78,0,0,1,372,84.8a12.33,12.33,0,0,1,.12,1.93c0,1.35.06,3.12.1,5.26,0,4.45.09,10.59.09,17.38,0,1,0,2.06,0,3l-.3-.3c6.08,0,11.46.05,15.32.1l4.56.09A9.83,9.83,0,0,1,393.54,112.4Z" style="fill:#263238"></path><path d="M372.16,71.82a13.36,13.36,0,0,1,.3,3.93,13.46,13.46,0,0,1-.3,3.94c-.17,0-.31-1.77-.31-3.94S372,71.82,372.16,71.82Z" style="fill:#263238"></path><path d="M393.5,78.14a12.63,12.63,0,0,1-2.53,3c-1.51,1.52-2.84,2.65-3,2.53a13.18,13.18,0,0,1,2.53-3C392.06,79.15,393.38,78,393.5,78.14Z" style="fill:#263238"></path><path d="M406,91.77a16.94,16.94,0,0,1-3.23,2.15,16.68,16.68,0,0,1-3.4,1.88c-.1-.14,1.24-1.28,3.09-2.4S405.91,91.62,406,91.77Z" style="fill:#263238"></path><path d="M413.29,112a48.12,48.12,0,0,1-10.73,0c0-.17,2.4-.31,5.37-.31S413.29,111.83,413.29,112Z" style="fill:#263238"></path><path d="M338.89,111.28c0,.17-2.27.3-5.07.3s-5.06-.13-5.06-.3,2.26-.3,5.06-.3S338.89,111.11,338.89,111.28Z" style="fill:#263238"></path><path d="M344.15,126.34c.11.13-1.6,1.68-3.83,3.48a22.27,22.27,0,0,1-4.21,3c-.1-.14,1.62-1.69,3.83-3.48A23.05,23.05,0,0,1,344.15,126.34Z" style="fill:#263238"></path><path d="M357.13,138c.14.1-1.13,2.06-2.6,4.52s-2.61,4.49-2.77,4.42A17.14,17.14,0,0,1,354,142.2C355.5,139.71,357,137.89,357.13,138Z" style="fill:#263238"></path><path d="M372.16,153c-.17,0-.31-2.4-.31-5.36s.14-5.37.31-5.37a24.68,24.68,0,0,1,.3,5.37A24.62,24.62,0,0,1,372.16,153Z" style="fill:#263238"></path><path d="M395.28,145.86c-.08.14-2.18-1.07-4.42-3s-3.73-3.86-3.61-4,1.8,1.6,4,3.52S395.38,145.72,395.28,145.86Z" style="fill:#263238"></path><path d="M406.14,134.17c-.12.12-1.71-1.28-3.55-3.12s-3.25-3.43-3.13-3.55,1.71,1.28,3.55,3.12A19,19,0,0,1,406.14,134.17Z" style="fill:#263238"></path><path d="M343.66,96.85c-.12.12-1.52-1.09-3.14-2.7s-2.82-3-2.7-3.14,1.52,1.1,3.13,2.71A14.31,14.31,0,0,1,343.66,96.85Z" style="fill:#263238"></path><path d="M357.06,82.74c-.12.12-1.5-1.06-3.09-2.64s-2.77-2.95-2.65-3.07,1.5,1.07,3.08,2.64A14.28,14.28,0,0,1,357.06,82.74Z" style="fill:#263238"></path><path d="M330.64,111.58a46.56,46.56,0,0,1,43.79-46.47c-.91,0-1.83-.09-2.76-.09a46.57,46.57,0,1,0,0,93.13c.93,0,1.85,0,2.76-.09A46.56,46.56,0,0,1,330.64,111.58Z" style="fill:#e0e0e0"></path><path d="M311.64,110.31s0,.25,0,.74.05,1.22.08,2.15.16,2.12.29,3.49.37,3,.73,4.73a60.94,60.94,0,0,0,3.8,12.5,66.94,66.94,0,0,0,3.73,7.26,65.48,65.48,0,0,0,5.29,7.47,61.31,61.31,0,0,0,15.91,13.53,59.85,59.85,0,0,0,22.62,7.76,60.51,60.51,0,0,0,26.28-2.35,62.11,62.11,0,0,0,12.78-5.82,63.24,63.24,0,0,0,11.37-8.93,62.05,62.05,0,0,0,8.92-11.37,61.31,61.31,0,0,0,5.83-12.77,60.56,60.56,0,0,0,2.35-26.29,59.79,59.79,0,0,0-7.76-22.62,61.31,61.31,0,0,0-13.53-15.91,64.25,64.25,0,0,0-7.47-5.29,65.2,65.2,0,0,0-7.26-3.73,61.67,61.67,0,0,0-12.5-3.81c-1.77-.35-3.35-.54-4.73-.72s-2.54-.23-3.49-.29L372.77,50l-.73,0s.24,0,.73,0l2.16,0c.95,0,2.12.12,3.5.24s3,.33,4.74.68a60.19,60.19,0,0,1,12.58,3.73,61.63,61.63,0,0,1,14.85,9,61.38,61.38,0,0,1,13.67,16,60.22,60.22,0,0,1,7.87,22.78,60.92,60.92,0,0,1-2.35,26.5,60.24,60.24,0,0,1-14.87,24.36,63.15,63.15,0,0,1-11.47,9,60.56,60.56,0,0,1-39.38,8.21,60.22,60.22,0,0,1-22.78-7.87,61.33,61.33,0,0,1-16-13.67,63.57,63.57,0,0,1-5.29-7.53,62.3,62.3,0,0,1-3.71-7.32,59.68,59.68,0,0,1-3.74-12.58c-.35-1.77-.51-3.36-.68-4.74s-.2-2.56-.24-3.5l0-2.16C311.63,110.56,311.64,110.31,311.64,110.31Z" style="fill:#263238"></path><path d="M433.92,136a2.08,2.08,0,0,1-.14.56l-.49,1.58c-.11.35-.24.73-.37,1.14s-.34.84-.52,1.32c-.4.94-.79,2-1.39,3.17-.28.58-.58,1.18-.89,1.81s-.7,1.25-1.07,1.91c-.72,1.33-1.64,2.66-2.58,4.07a61.2,61.2,0,0,1-7.18,8.4,61.84,61.84,0,0,1-8.66,6.86c-1.46.88-2.82,1.75-4.18,2.42-.67.34-1.3.71-1.94,1l-1.85.81c-1.16.56-2.27.91-3.22,1.27-.48.17-.92.34-1.34.47l-1.15.33-1.59.43a3.68,3.68,0,0,1-.57.12,2,2,0,0,1,.54-.22l1.56-.53,1.13-.36c.41-.15.84-.33,1.32-.52.94-.38,2-.75,3.18-1.32l1.81-.85c.63-.29,1.26-.66,1.92-1,1.34-.68,2.68-1.56,4.11-2.45a63.75,63.75,0,0,0,8.57-6.82,64.53,64.53,0,0,0,7.15-8.3c.94-1.4,1.87-2.71,2.6-4,.37-.65.77-1.26,1.09-1.88l.91-1.78c.61-1.12,1-2.2,1.45-3.13.2-.46.4-.89.56-1.29s.28-.78.41-1.12c.24-.62.43-1.13.58-1.54A2.5,2.5,0,0,1,433.92,136Z" style="fill:#263238"></path><path d="M371.16,117c0,.06-.36.25-1,.21a3.06,3.06,0,0,1-2.82-3.61c.12-.65.39-1,.45-.93s-.07.39-.09,1a3.28,3.28,0,0,0,.65,2.08,3.19,3.19,0,0,0,1.86,1.12C370.76,117,371.14,116.94,371.16,117Z" style="fill:#263238"></path><path d="M369.62,119.13c0,.06-.38.16-1,.05a4.17,4.17,0,0,1-3.27-3.39c-.09-.63,0-1,.09-1s.1.38.27.93a4.78,4.78,0,0,0,1.13,1.92,4.89,4.89,0,0,0,1.87,1.2C369.25,119,369.62,119.05,369.62,119.13Z" style="fill:#263238"></path></g></svg>