<svg xmlns="http://www.w3.org/2000/svg" viewBox="0 0 500 500"><g id="freepik--Rocket--inject-2"><path d="M233.25,206.53c-7.68,3.65-11.16,14.17-7.16,21.68,1.58,3,4.16,5.57,4.5,8.91.52,5.12-4.32,9.12-5.82,14a11.71,11.71,0,0,0,7.92,14.15c2.63.69,5.78.57,7.54,2.64,2.25,2.64.62,7,2.55,9.91,1.73,2.61,5.78,2.74,8.39,1s4.05-4.75,5.08-7.71,1.8-6.07,3.58-8.65c2-2.83,4.95-4.77,7.33-7.26,5.72-6,7.47-15,6.18-23.21s-5.26-15.72-9.75-22.69" style="fill:#F26840"></path><g style="opacity:0.30000000000000004"><path d="M233.25,206.53c-7.68,3.65-11.16,14.17-7.16,21.68,1.58,3,4.16,5.57,4.5,8.91.52,5.12-4.32,9.12-5.82,14a11.71,11.71,0,0,0,7.92,14.15c2.63.69,5.78.57,7.54,2.64,2.25,2.64.62,7,2.55,9.91,1.73,2.61,5.78,2.74,8.39,1s4.05-4.75,5.08-7.71,1.8-6.07,3.58-8.65c2-2.83,4.95-4.77,7.33-7.26,5.72-6,7.47-15,6.18-23.21s-5.26-15.72-9.75-22.69" style="fill:#fff"></path></g><path d="M240,210.85c-6.51,2.87-9.36,11.9-5.68,18,2.25,3.72,6.61,7.08,5.55,11.29-.72,2.86-3.78,4.61-4.66,7.42-1.17,3.74,2.37,7.71,6.27,8.18s7.66-1.61,10.61-4.2c10.21-9,12.7-26.6,6.33-38.61" style="fill:#F26840"></path><path d="M273.56,153.61S307,175.73,303.35,214l-30.74-13.8Z" style="fill:#F26840"></path><polygon points="218 199.43 225.6 212.02 265.01 212.02 272.61 200.15 218 199.43" style="fill:#263238"></polygon><path d="M243.26,72.4A29.22,29.22,0,0,0,216,102.16l2,98h54.61l1.82-98.05A29.22,29.22,0,0,0,243.26,72.4Z" style="fill:#F26840"></path><g style="opacity:0.8"><path d="M243.26,72.4A29.22,29.22,0,0,0,216,102.16l2,98h54.61l1.82-98.05A29.22,29.22,0,0,0,243.26,72.4Z" style="fill:#fff"></path></g><path d="M217,153.61S183.6,175.73,187.26,214L218,200.18Z" style="fill:#F26840"></path><path d="M216.3,98.91c11.55-10.11,47.8-9.89,57.53-1.66-2.5-36.38-30.28-50-30.28-50C215.13,66.93,216.3,98.91,216.3,98.91Z" style="fill:#F26840"></path><path d="M243.55,47.26l.33.3c.21.2.53.49.93.88l1.52,1.44,1,.92,1,1.12c.72.79,1.54,1.66,2.41,2.64l2.66,3.32c.45.61.9,1.27,1.37,1.93s1,1.34,1.42,2.09c.89,1.48,1.88,3,2.73,4.75a54.4,54.4,0,0,1,4.51,11.72,52.37,52.37,0,0,1,1.31,6.88c.17,1.2.26,2.42.43,3.63a36.44,36.44,0,0,1,.13,3.78c0,10.15-.13,21.31-.26,33-.28,23.44-.61,44.65-.86,60-.13,7.67-.24,13.88-.32,18.18,0,2.14-.08,3.81-.1,5,0,.56,0,1,0,1.28s0,.44,0,.44,0-.15,0-.44,0-.72,0-1.28c0-1.14,0-2.81.05-5,.05-4.3.13-10.51.22-18.18.2-15.37.47-36.58.78-60,.13-11.72.28-22.88.28-33a33.06,33.06,0,0,0-.13-3.74c-.16-1.23-.25-2.44-.41-3.63a52.07,52.07,0,0,0-1.3-6.86,54.75,54.75,0,0,0-4.45-11.68C257.9,65,256.91,63.48,256,62c-.44-.75-1-1.41-1.41-2.09s-.9-1.32-1.35-1.93l-2.64-3.33c-.86-1-1.67-1.85-2.39-2.65l-1-1.13-.95-.93-1.5-1.46-.91-.9Z" style="fill:#263238"></path><ellipse cx="243.23" cy="120.8" rx="14.42" ry="13.4" transform="translate(72.84 332.27) rotate(-77.55)" style="fill:#fafafa"></ellipse><path d="M246.34,106.72a.8.8,0,0,1-.23,0l-.65-.09-.48-.08-.59,0-.68,0c-.25,0-.51,0-.78,0a13.11,13.11,0,0,0-1.81.24,12.78,12.78,0,0,0-2.08.63,14,14,0,0,0-4.44,2.84,14.69,14.69,0,0,0-3.57,5.26,13.06,13.06,0,0,0-.55,1.67c-.07.29-.16.58-.23.87l-.15.9-.08.46,0,.46c0,.31-.05.63-.07.94s0,.63,0,.95v.48l.05.49a14.19,14.19,0,0,0,3,7.44,12.46,12.46,0,0,0,15.65,3.46,14.28,14.28,0,0,0,5.82-5.51l.25-.41.21-.44.42-.85.33-.88.16-.44.13-.45.24-.88c.07-.29.1-.59.16-.88a15.13,15.13,0,0,0,.2-1.75,14.57,14.57,0,0,0-1-6.28,13.68,13.68,0,0,0-4.45-5.89,14.32,14.32,0,0,0-1.54-1c-.25-.12-.47-.26-.69-.36l-.63-.26-.55-.22-.46-.14-.64-.19a1,1,0,0,1-.21-.08l.22,0,.64.16.48.13.55.21.64.25.7.35a14.41,14.41,0,0,1,1.58,1,15,15,0,0,1,1.65,1.45,14,14,0,0,1,2.9,4.47,14.64,14.64,0,0,1,1.07,6.37,13.62,13.62,0,0,1-.19,1.78c-.06.3-.09.6-.16.9s-.16.6-.25.9l-.12.45-.16.44-.34.9-.42.87-.21.45-.26.42a14.36,14.36,0,0,1-5.92,5.62,12.71,12.71,0,0,1-16-3.53,14.43,14.43,0,0,1-3-7.6l0-.49v-.49c0-.32,0-.65,0-1s0-.64.08-1l0-.47.07-.47c.06-.3.11-.61.16-.91s.16-.59.24-.89a12,12,0,0,1,.57-1.69,14.67,14.67,0,0,1,3.65-5.33,14,14,0,0,1,4.52-2.83,13,13,0,0,1,2.11-.62,13.31,13.31,0,0,1,1.83-.22c.28,0,.54,0,.79,0l.69,0,.59,0,.48.09.65.12Z" style="fill:#263238"></path><path d="M229.42,118.64c0,.17-3.08.09-6.79.76s-6.57,1.79-6.63,1.63a5.85,5.85,0,0,1,1.82-.89,26.68,26.68,0,0,1,9.58-1.7A6.27,6.27,0,0,1,229.42,118.64Z" style="fill:#263238"></path><path d="M273.57,118.62a12.4,12.4,0,0,1-2.46-.23c-1.5-.18-3.58-.42-5.88-.59s-4.39-.21-5.91-.24a12.57,12.57,0,0,1-2.46-.11,8.82,8.82,0,0,1,2.45-.28,51.16,51.16,0,0,1,6,.08,52.2,52.2,0,0,1,5.9.75A9.86,9.86,0,0,1,273.57,118.62Z" style="fill:#263238"></path><path d="M273.87,174.7a2.14,2.14,0,0,1-.58,0l-1.65-.13-6.07-.46c-5.12-.36-12.21-.71-20-.7s-14.92.37-20.05.74l-6.06.48-1.65.12a2,2,0,0,1-.58,0,2.21,2.21,0,0,1,.57-.12l1.64-.23c1.42-.19,3.49-.42,6-.65,5.12-.48,12.23-.9,20.08-.91s15,.4,20.07.87c2.57.23,4.63.45,6.06.64l1.64.22A2.21,2.21,0,0,1,273.87,174.7Z" style="fill:#263238"></path><path d="M230.87,132.69c0,.08-.34.11-.57.5a.84.84,0,0,0-.11.69.68.68,0,0,0,.62.42.69.69,0,0,0,.69-.32.85.85,0,0,0,0-.7c-.17-.42-.5-.5-.48-.58s.46-.15.83.39a1.23,1.23,0,0,1,.12,1.1,1.15,1.15,0,0,1-1.19.67A1.12,1.12,0,0,1,230,133C230.44,132.47,230.91,132.62,230.87,132.69Z" style="fill:#263238"></path><path d="M242.77,139.1c0,.09-.34.12-.57.51a.85.85,0,0,0-.11.68.67.67,0,0,0,.62.43.7.7,0,0,0,.69-.33.87.87,0,0,0,0-.69c-.18-.42-.51-.5-.49-.58s.46-.15.83.39a1.21,1.21,0,0,1,.12,1.09,1.16,1.16,0,0,1-1.19.68,1.12,1.12,0,0,1-.78-1.91C242.34,138.89,242.81,139,242.77,139.1Z" style="fill:#263238"></path><path d="M255.9,133.63c0,.09-.33.12-.57.51a.85.85,0,0,0-.11.68.7.7,0,0,0,.63.43.67.67,0,0,0,.68-.33.87.87,0,0,0,0-.69c-.17-.42-.51-.5-.49-.59s.46-.14.83.4a1.18,1.18,0,0,1,.13,1.09,1.19,1.19,0,0,1-1.2.68,1.16,1.16,0,0,1-1.07-.85,1.2,1.2,0,0,1,.29-1.06C255.47,133.42,255.94,133.57,255.9,133.63Z" style="fill:#263238"></path><path d="M260.17,123.82c0,.08-.34.11-.58.5a.87.87,0,0,0-.1.69.67.67,0,0,0,.62.43.69.69,0,0,0,.68-.33.87.87,0,0,0,0-.69c-.17-.42-.5-.51-.49-.59s.46-.14.84.4a1.2,1.2,0,0,1,.12,1.09,1.16,1.16,0,0,1-1.19.67,1.17,1.17,0,0,1-1.08-.85,1.21,1.21,0,0,1,.29-1.06C259.73,123.61,260.2,123.76,260.17,123.82Z" style="fill:#263238"></path><path d="M226.53,122.87c0,.08-.34.11-.57.5a.88.88,0,0,0-.11.69.68.68,0,0,0,.62.43.72.72,0,0,0,.69-.33.83.83,0,0,0,0-.69c-.17-.42-.5-.51-.48-.59s.46-.14.83.4a1.2,1.2,0,0,1,.12,1.09,1.15,1.15,0,0,1-1.19.67,1.17,1.17,0,0,1-1.08-.85,1.19,1.19,0,0,1,.3-1.06C226.1,122.66,226.57,122.81,226.53,122.87Z" style="fill:#263238"></path><path d="M255.88,109.41c0-.08.34-.11.57-.5a.84.84,0,0,0,.11-.69.7.7,0,0,0-.62-.43.69.69,0,0,0-.68.33.79.79,0,0,0,0,.69c.17.42.5.51.48.59s-.46.14-.83-.4a1.2,1.2,0,0,1-.12-1.09,1.15,1.15,0,0,1,1.19-.67,1.12,1.12,0,0,1,.78,1.91C256.31,109.63,255.84,109.47,255.88,109.41Z" style="fill:#263238"></path><path d="M242.75,103.59c0-.08.34-.11.57-.5a.88.88,0,0,0,.11-.69.71.71,0,0,0-.63-.43.69.69,0,0,0-.68.33.87.87,0,0,0,0,.69c.17.43.51.51.49.59s-.46.15-.83-.4a1.11,1.11,0,0,1,1.07-1.76,1.16,1.16,0,0,1,1.07.85,1.21,1.21,0,0,1-.29,1.06C243.18,103.81,242.71,103.66,242.75,103.59Z" style="fill:#263238"></path><path d="M229.77,109.41c0-.08.34-.11.57-.5a.88.88,0,0,0,.11-.69.71.71,0,0,0-.63-.43.69.69,0,0,0-.68.33.87.87,0,0,0,0,.69c.17.42.51.51.49.59s-.46.14-.83-.4a1.11,1.11,0,0,1,1.07-1.76,1.16,1.16,0,0,1,1.07.85,1.21,1.21,0,0,1-.29,1.06C230.2,109.63,229.73,109.47,229.77,109.41Z" style="fill:#263238"></path><path d="M241.09,157.63l1.17,58.51a3.07,3.07,0,0,0,3.13,3h0a3.07,3.07,0,0,0,3-3c.12-10.54.51-46,.57-58.57a3.93,3.93,0,0,0-4.52-3.9h0A3.94,3.94,0,0,0,241.09,157.63Z" style="fill:#F26840"></path><g style="opacity:0.30000000000000004"><path d="M241.09,157.63l1.17,58.51a3.07,3.07,0,0,0,3.13,3h0a3.07,3.07,0,0,0,3-3c.12-10.54.51-46,.57-58.57a3.93,3.93,0,0,0-4.52-3.9h0A3.94,3.94,0,0,0,241.09,157.63Z"></path></g><path d="M242.9,50.6c.17.2-1.77,2.08-4.6,5.38-1.42,1.64-3,3.68-4.67,6a85.48,85.48,0,0,0-4.9,7.91,84.54,84.54,0,0,0-3.89,8.44c-1,2.67-1.85,5.12-2.44,7.21-1.19,4.18-1.69,6.84-2,6.8s-.11-2.76.81-7.09a59.81,59.81,0,0,1,2.14-7.46,68.32,68.32,0,0,1,3.86-8.7,71.68,71.68,0,0,1,5.12-8,59.85,59.85,0,0,1,5.05-5.9C240.53,52,242.77,50.45,242.9,50.6Z" style="fill:#fff"></path><path d="M215.77,159.43c.16.25-2.61,2-6.47,5.62l-1.49,1.42c-.52.5-1,1.07-1.54,1.62-1.09,1.1-2.11,2.4-3.22,3.73a65.27,65.27,0,0,0-6.15,9.42,66.75,66.75,0,0,0-4.32,10.4c-.47,1.66-1,3.24-1.26,4.75-.16.76-.35,1.48-.47,2.19s-.23,1.38-.33,2c-.78,5.21-.71,8.5-1,8.51-.12,0-.23-.81-.33-2.31,0-.38-.05-.8-.07-1.25s0-.95,0-1.48a35,35,0,0,1,.21-3.61c.07-.67.15-1.37.23-2.1s.25-1.48.38-2.25c.25-1.57.7-3.2,1.15-4.92a55.52,55.52,0,0,1,10.75-20.35,50.47,50.47,0,0,1,3.42-3.72c.56-.55,1.09-1.11,1.64-1.59l1.6-1.37a34,34,0,0,1,2.87-2.21c.43-.31.83-.61,1.21-.86l1.07-.64C215,159.7,215.7,159.33,215.77,159.43Z" style="fill:#fff"></path><path d="M172.73,350.21a7.56,7.56,0,0,1,2.3-14c2.74-.54,6.17.24,7.89-2,1.57-2,.39-4.64,1.08-7.84s3.44-4.71,6.47-4.67a9,9,0,0,1,7.36,4.64,17.55,17.55,0,0,1,2.11,9.7c-.81,6.91-4.5,10.45-9.09,13.38s-13.28,3.6-18.12.73" style="fill:#F26840"></path><g style="opacity:0.8"><path d="M172.73,350.21a7.56,7.56,0,0,1,2.3-14c2.74-.54,6.17.24,7.89-2,1.57-2,.39-4.64,1.08-7.84s3.44-4.71,6.47-4.67a9,9,0,0,1,7.36,4.64,17.55,17.55,0,0,1,2.11,9.7c-.81,6.91-4.5,10.45-9.09,13.38s-13.28,3.6-18.12.73" style="fill:#fff"></path></g><path d="M284.92,294.82a11.8,11.8,0,0,1,21.94,2.75c1,4.25,0,9.63,3.53,12.2,3.21,2.33,7.27.32,12.31,1.2s7.56,5.08,7.67,9.82-2.79,9.24-6.8,11.76a27.45,27.45,0,0,1-15,3.88c-10.83-.85-16.58-6.4-21.43-13.38s-6.41-20.51-2.22-28.23" style="fill:#F26840"></path><g style="opacity:0.8"><path d="M284.92,294.82a11.8,11.8,0,0,1,21.94,2.75c1,4.25,0,9.63,3.53,12.2,3.21,2.33,7.27.32,12.31,1.2s7.56,5.08,7.67,9.82-2.79,9.24-6.8,11.76a27.45,27.45,0,0,1-15,3.88c-10.83-.85-16.58-6.4-21.43-13.38s-6.41-20.51-2.22-28.23" style="fill:#fff"></path></g><path d="M204.11,280.64a7.37,7.37,0,0,0-4,6.56,7,7,0,1,0,4-6.56" style="fill:#F26840"></path><g style="opacity:0.8"><path d="M204.11,280.64a7.37,7.37,0,0,0-4,6.56,7,7,0,1,0,4-6.56" style="fill:#fff"></path></g><path d="M310.43,364.5a3.71,3.71,0,0,0-2,3.28,3.51,3.51,0,1,0,2-3.28" style="fill:#F26840"></path><g style="opacity:0.8"><path d="M310.43,364.5a3.71,3.71,0,0,0-2,3.28,3.51,3.51,0,1,0,2-3.28" style="fill:#fff"></path></g></g></svg>