<?xml version="1.0" standalone="no"?><svg xmlns="http://www.w3.org/2000/svg" viewBox="0 140 1440 90"><path fill="#F26840" fill-opacity="1" d="M0,96L40,128C80,160,160,224,240,245.3C320,267,400,245,480,224C560,203,640,181,720,186.7C800,192,880,224,960,229.3C1040,235,1120,213,1200,192C1280,171,1360,149,1400,138.7L1440,128L1440,320L1400,320C1360,320,1280,320,1200,320C1120,320,1040,320,960,320C880,320,800,320,720,320C640,320,560,320,480,320C400,320,320,320,240,320C160,320,80,320,40,320L0,320Z"></path></svg>